<?xml version="1.0" standalone="no"?>
<!DOCTYPE svg PUBLIC "-//W3C//DTD SVG 20010904//EN"
 "http://www.w3.org/TR/2001/REC-SVG-20010904/DTD/svg10.dtd">
<svg version="1.0" xmlns="http://www.w3.org/2000/svg"
 width="2048.000000pt" height="2048.000000pt" viewBox="0 0 2048.000000 2048.000000"
 preserveAspectRatio="xMidYMid meet">
<metadata>
Created by potrace 1.14, written by Peter Selinger 2001-2017
</metadata>
<g transform="translate(0.000000,2048.000000) scale(0.100000,-0.100000)"
fill="#000000" stroke="none">
<path d="M2993 20456 c-129 -60 -236 -179 -284 -316 -31 -88 -34 -267 -6 -298
12 -14 17 -28 12 -41 -7 -24 12 -91 26 -91 5 0 9 -10 9 -22 0 -37 99 -224 164
-308 23 -30 50 -67 59 -83 31 -48 87 -77 182 -92 48 -8 93 -19 100 -25 7 -6
16 -29 19 -53 10 -61 64 -223 97 -287 59 -116 168 -217 345 -318 121 -70 227
-109 326 -122 49 -6 103 -20 132 -34 40 -20 53 -23 75 -14 14 6 30 10 35 9 5
-1 31 5 58 14 27 9 53 13 58 10 6 -3 39 8 75 25 42 20 73 29 86 25 14 -5 28 0
42 13 12 11 37 27 56 37 75 38 251 187 251 213 0 7 21 35 46 62 76 81 179 237
248 375 83 166 116 243 116 267 0 10 7 29 15 41 8 13 17 55 21 95 6 61 4 72
-10 78 -9 3 -13 11 -9 17 6 10 5 81 -2 142 -8 68 -25 108 -55 134 -43 36 -80
130 -80 204 0 44 -5 62 -20 77 -11 11 -20 25 -20 30 0 16 -37 12 -44 -5 -6
-16 -33 -20 -54 -7 -7 5 -14 27 -16 49 -2 27 -14 55 -37 84 -42 54 -50 60 -70
54 -9 -3 -22 1 -29 10 -14 17 -51 20 -67 4 -8 -8 -39 -5 -109 10 -55 12 -134
24 -177 28 -52 4 -81 11 -84 20 -4 11 -120 13 -660 13 -568 0 -656 -2 -669
-15 -9 -8 -26 -15 -38 -15 -13 0 -29 7 -36 15 -16 19 -15 19 -77 -9z m939
-643 c21 -19 24 -71 4 -79 -17 -6 -67 18 -86 41 -12 15 -11 19 10 36 31 23 48
24 72 2z m698 -473 c0 -49 -59 -93 -74 -55 -5 15 48 85 65 85 5 0 9 -13 9 -30z"/>
<path d="M15667 20445 c-16 -21 -43 -39 -67 -46 -22 -7 -47 -20 -56 -31 -10
-10 -27 -18 -40 -18 -13 0 -30 -10 -38 -22 -14 -19 -14 -25 -1 -44 8 -13 12
-30 9 -38 -3 -8 -1 -23 4 -33 12 -22 5 -43 -14 -43 -25 0 -28 -30 -6 -46 20
-13 21 -21 16 -97 l-6 -83 35 -27 c45 -34 73 -81 82 -134 4 -25 24 -67 51
-105 24 -35 44 -69 44 -75 0 -7 12 -19 28 -27 15 -8 68 -57 117 -108 132 -137
275 -221 558 -327 298 -112 429 -126 692 -72 28 5 78 12 112 14 35 2 70 10 79
17 29 25 127 60 139 50 11 -9 209 82 308 143 29 17 61 37 72 43 31 17 82 99
90 145 9 55 33 74 88 70 29 -1 48 3 56 13 22 26 51 89 45 97 -3 5 2 9 10 9 9
0 16 6 16 14 0 8 3 21 6 30 4 10 1 16 -8 16 -12 0 -14 11 -10 51 5 56 31 93
57 83 10 -4 15 0 15 14 0 11 -4 22 -9 24 -17 7 -22 46 -6 61 8 9 15 23 15 31
0 14 -3 14 -20 4 -28 -18 -35 -3 -19 44 7 24 14 67 14 98 0 47 -3 55 -17 52
-22 -4 -24 26 -3 34 17 7 20 49 5 59 -6 4 -8 11 -5 16 4 5 0 9 -9 9 -8 0 -17
6 -19 13 -4 9 -8 8 -16 -3 -9 -12 -11 -11 -11 7 0 12 -5 25 -11 28 -6 4 -8 13
-5 20 12 32 -59 37 -562 39 -273 2 -504 6 -512 9 -8 3 -259 8 -556 11 -318 3
-552 10 -567 15 -17 7 -28 7 -32 1 -11 -17 -61 -11 -80 10 -24 26 -25 26 -58
-15z m2376 -141 c3 -3 3 -12 0 -20 -4 -11 -9 -12 -19 -3 -8 6 -14 15 -14 20 0
10 24 12 33 3z m-8 -574 c-5 -8 -11 -8 -17 -2 -6 6 -7 16 -3 22 5 8 11 8 17 2
6 -6 7 -16 3 -22z"/>
<path d="M20370 20378 c-66 -8 -100 -19 -227 -74 -17 -8 -36 -14 -42 -14 -6 0
-11 -4 -11 -8 0 -4 -18 -19 -40 -32 -40 -25 -47 -38 -31 -55 6 -6 5 -16 -2
-26 -14 -18 -16 -19 -57 -19 -23 0 -33 -7 -45 -30 -13 -25 -20 -29 -40 -24
-20 5 -27 1 -34 -19 -12 -30 -36 -40 -51 -21 -19 22 -37 17 -79 -21 -21 -19
-42 -35 -47 -35 -5 0 -60 -34 -123 -75 -63 -41 -127 -77 -143 -80 -15 -4 -34
-14 -41 -23 -6 -9 -46 -46 -87 -82 -41 -36 -88 -78 -104 -93 -16 -16 -40 -35
-52 -44 -13 -8 -37 -35 -53 -59 -16 -25 -55 -72 -85 -105 -31 -33 -56 -66 -56
-74 0 -8 -4 -15 -10 -15 -5 0 -10 -6 -10 -14 0 -7 -11 -21 -25 -30 -14 -9 -25
-22 -25 -29 0 -6 -20 -41 -45 -77 -44 -63 -56 -102 -35 -115 22 -13 8 -49 -35
-93 -25 -25 -45 -51 -45 -57 0 -7 -7 -18 -15 -25 -9 -7 -15 -29 -15 -52 0 -44
-21 -93 -45 -102 -13 -4 -16 -17 -14 -53 3 -43 1 -49 -23 -61 -16 -7 -31 -26
-36 -45 -29 -92 -52 -180 -65 -247 -8 -41 -27 -124 -41 -185 -46 -192 -56
-262 -50 -385 9 -218 9 -227 28 -255 17 -26 17 -35 6 -115 -7 -48 -10 -105 -6
-126 4 -22 10 -66 15 -99 14 -105 67 -256 114 -326 24 -36 58 -96 76 -134 54
-116 123 -227 171 -275 148 -148 271 -261 304 -279 21 -12 58 -24 82 -28 24
-3 44 -10 44 -15 0 -12 51 -79 96 -128 39 -42 53 -75 64 -155 7 -47 6 -65 -6
-82 -9 -15 -11 -29 -6 -40 5 -10 20 -50 32 -90 17 -54 20 -76 12 -86 -20 -23
36 -216 107 -372 10 -22 31 -69 46 -105 84 -201 187 -373 296 -495 227 -256
356 -376 474 -439 28 -15 71 -40 98 -56 l47 -29 0 3169 c0 3013 -1 3170 -17
3169 -10 -1 -52 -6 -93 -11z m-1222 -4206 c2 -7 -3 -12 -12 -12 -9 0 -16 7
-16 16 0 17 22 14 28 -4z"/>
<path d="M0 17974 l0 -2313 32 -17 c18 -9 58 -33 88 -54 120 -80 218 -111 393
-125 52 -4 83 -2 92 5 10 9 20 7 40 -6 22 -14 32 -15 63 -6 21 6 52 8 72 4 66
-14 275 1 328 23 22 10 48 13 69 9 18 -3 39 -2 46 3 6 6 26 13 42 17 17 4 37
13 45 21 8 7 31 15 50 18 37 5 122 38 233 89 77 37 137 87 137 115 0 22 18 43
36 43 17 0 104 80 104 96 0 7 8 15 18 18 10 4 48 34 83 67 35 33 84 77 109 97
70 56 120 105 120 117 0 6 12 22 26 36 51 46 229 347 249 419 3 14 19 57 35
95 58 140 88 223 94 257 3 20 10 46 15 60 5 14 12 46 14 71 3 26 8 51 12 57 3
5 -3 10 -14 10 -25 0 -26 6 -6 53 8 21 15 67 15 105 0 59 3 72 24 91 17 16 23
32 21 54 -1 18 2 40 7 50 5 10 4 25 -3 39 -6 12 -13 50 -15 85 -4 69 -8 83
-29 83 -8 0 -15 16 -18 43 -10 86 -30 183 -43 209 -20 39 -18 78 4 78 10 0 23
-5 30 -12 18 -18 16 22 -3 58 -8 16 -15 37 -15 46 0 9 -5 18 -11 20 -5 2 -24
64 -40 138 -27 119 -29 139 -18 180 11 42 10 51 -9 86 -11 21 -30 57 -41 79
-11 22 -34 53 -50 69 -17 17 -31 34 -31 40 0 5 -32 40 -70 77 -38 38 -70 73
-70 79 0 6 -9 21 -21 33 -11 12 -28 36 -36 52 -9 17 -35 54 -57 84 -23 29 -46
61 -51 70 -21 36 -108 151 -114 151 -4 0 -15 15 -25 34 -10 18 -28 39 -41 46
-13 7 -29 25 -34 39 -15 39 -62 101 -94 125 -27 20 -29 20 -38 3 -13 -22 -32
-12 -24 13 8 24 -26 62 -137 153 -87 72 -126 98 -188 130 -14 6 -38 27 -53 45
-40 44 -74 52 -98 21 l-18 -24 -38 20 c-21 11 -65 47 -98 80 -68 67 -83 76
-175 105 -36 11 -87 28 -114 37 -27 9 -69 16 -93 15 -23 0 -45 4 -49 9 -8 14
-24 11 -24 -6 0 -25 -40 -18 -50 9 -8 22 -14 24 -78 24 -40 0 -84 7 -106 16
-21 9 -55 16 -75 16 -45 0 -231 19 -288 30 l-43 8 0 -2314z m2144 970 c3 -8 2
-12 -4 -9 -6 3 -10 10 -10 16 0 14 7 11 14 -7z m95 -83 c38 -37 53 -71 31 -71
-14 0 -90 82 -90 97 0 22 17 15 59 -26z m-1270 -1225 c9 -11 10 -25 2 -53 -16
-55 -13 -143 4 -177 8 -15 15 -30 15 -32 0 -2 -23 -3 -51 -2 -33 0 -54 -4 -59
-12 -7 -11 -16 -11 -48 2 -39 15 -40 15 -45 -4 -8 -30 -25 -13 -19 18 4 21 2
25 -8 19 -20 -12 -70 -12 -70 0 0 18 97 152 137 189 21 20 47 36 58 36 11 0
29 7 39 15 25 19 31 19 45 1z"/>
<path d="M11040 19885 c-23 -42 -70 -45 -70 -4 0 14 -7 19 -24 19 -14 0 -28
-4 -31 -10 -3 -5 1 -10 9 -10 9 0 16 -4 16 -10 0 -5 -9 -10 -19 -10 -11 0 -23
5 -26 10 -9 15 -45 12 -45 -4 0 -26 -20 -28 -29 -4 -7 15 -10 18 -10 7 -2 -39
-56 -23 -74 22 -5 11 -8 10 -17 -4 -9 -13 -19 -17 -36 -13 -20 5 -24 3 -24
-16 -1 -23 -1 -23 -24 4 -23 26 -47 28 -25 2 9 -11 7 -15 -6 -21 -11 -4 -22 0
-30 10 -13 19 -35 23 -35 7 0 -5 -7 -10 -15 -10 -8 0 -15 9 -15 20 0 11 -4 20
-10 20 -5 0 -7 -13 -4 -30 5 -22 2 -31 -10 -36 -26 -10 -32 4 -10 22 10 8 14
13 7 10 -6 -4 -15 -1 -19 6 -5 8 -10 4 -16 -11 -4 -12 -12 -19 -18 -16 -6 4
-8 10 -6 14 3 4 1 13 -5 21 -6 11 -9 12 -9 2 0 -8 -5 -10 -12 -6 -7 4 -10 4
-6 -1 13 -14 -13 -37 -27 -25 -9 8 -14 6 -19 -5 -8 -22 -36 -19 -36 4 0 11 -4
23 -10 26 -5 3 -10 1 -10 -4 0 -6 -7 -11 -15 -11 -8 0 -15 -6 -15 -14 0 -8 -7
-17 -16 -20 -24 -9 -26 -8 -19 13 3 11 1 22 -5 26 -5 3 -10 -1 -10 -10 0 -8
-7 -18 -15 -21 -21 -8 -68 24 -61 41 3 8 1 17 -3 20 -12 7 -43 -43 -35 -57 4
-6 1 -9 -7 -6 -8 3 -13 11 -11 18 2 8 -11 4 -33 -9 -47 -27 -53 -27 -57 7 -3
30 -21 33 -27 5 -6 -31 -21 -42 -44 -34 -21 8 -54 -3 -70 -24 -4 -6 -12 -3
-18 9 -9 14 -13 15 -19 6 -6 -10 -13 -9 -31 4 -31 21 -39 20 -39 -5 0 -15 -5
-19 -15 -15 -9 3 -15 0 -15 -9 0 -21 -23 -19 -52 5 l-25 19 -12 -25 c-9 -20
-17 -25 -34 -20 -12 3 -30 6 -39 6 -10 0 -18 7 -18 15 0 8 -4 15 -10 15 -5 0
-10 -4 -10 -9 0 -13 -50 -71 -61 -71 -5 0 -15 14 -24 30 -17 33 -35 40 -35 13
0 -10 -5 -25 -10 -33 -9 -13 -12 -13 -21 3 -5 9 -15 17 -21 17 -6 0 -8 -3 -5
-6 8 -8 -11 -44 -23 -44 -5 0 -10 12 -13 28 l-4 27 -8 -32 c-9 -38 -43 -46
-52 -12 -4 14 -12 19 -27 17 -16 -2 -21 -10 -21 -32 0 -16 -6 -31 -12 -33 -7
-3 -13 0 -13 6 0 6 -7 11 -15 11 -8 0 -15 -9 -15 -20 0 -23 -18 -27 -25 -5
-16 50 -17 51 -27 23 -6 -17 -17 -28 -28 -28 -10 0 -20 -7 -24 -15 -3 -8 -13
-15 -21 -15 -9 0 -14 4 -11 9 3 4 -1 17 -9 27 -14 18 -15 18 -34 -6 -11 -14
-23 -25 -28 -26 -22 -2 -44 -18 -39 -29 2 -6 0 -18 -4 -25 -7 -11 -11 -11 -24
-1 -8 7 -19 10 -25 7 -14 -9 -41 4 -41 20 0 22 -17 16 -25 -8 l-8 -23 -4 23
c-5 27 -10 28 -31 2 -14 -16 -24 -19 -54 -14 -24 4 -38 12 -38 21 0 8 -7 13
-17 11 -13 -3 -17 -12 -16 -35 2 -18 -4 -36 -12 -43 -12 -10 -15 -9 -15 4 0
25 -32 19 -57 -11 l-23 -28 -19 23 c-30 34 -51 29 -51 -14 0 -29 -3 -35 -16
-30 -9 3 -20 6 -25 6 -6 0 -7 4 -4 10 4 6 -1 7 -12 3 -28 -10 -44 -25 -56 -53
l-10 -25 -7 30 c-3 17 -2 36 3 43 17 22 -1 24 -22 3 -12 -12 -30 -21 -40 -21
-11 0 -23 -5 -26 -10 -4 -7 -11 -8 -18 -1 -8 6 -32 0 -72 -19 -33 -16 -67 -29
-76 -30 -9 0 -20 -7 -23 -16 -9 -24 -26 -6 -26 27 0 38 -17 37 -25 -1 -9 -40
-45 -64 -84 -55 -23 5 -32 2 -40 -13 -6 -11 -26 -23 -45 -26 -19 -4 -40 -13
-47 -22 -6 -8 -19 -14 -28 -12 -9 1 -30 -5 -46 -14 -17 -9 -46 -19 -66 -23
-24 -4 -40 -15 -52 -37 -14 -25 -22 -29 -42 -24 -19 5 -31 0 -49 -19 -13 -14
-29 -25 -36 -25 -14 0 -57 -18 -145 -60 -33 -15 -107 -49 -165 -75 -58 -26
-127 -57 -155 -69 -27 -13 -63 -29 -79 -35 -16 -7 -52 -27 -80 -45 -52 -34
-143 -87 -206 -120 -19 -10 -52 -32 -73 -48 -20 -16 -52 -34 -70 -40 -17 -6
-47 -26 -65 -45 -18 -18 -41 -33 -51 -33 -10 0 -24 -7 -31 -15 -14 -17 -40
-20 -40 -5 0 22 -22 8 -33 -20 -11 -28 -37 -42 -37 -20 0 17 -25 11 -38 -10
-12 -19 -108 -70 -132 -70 -6 0 -24 -12 -39 -27 -15 -16 -54 -41 -87 -57 -32
-17 -72 -40 -89 -52 -29 -21 -228 -143 -284 -174 -150 -83 -311 -199 -421
-305 -63 -60 -151 -139 -194 -175 -125 -104 -205 -181 -231 -226 -13 -23 -35
-48 -48 -57 -22 -14 -26 -14 -40 0 -15 15 -17 14 -26 -8 -5 -14 -16 -31 -26
-39 -9 -7 -23 -27 -31 -43 -14 -26 -18 -28 -54 -22 -38 6 -40 5 -57 -29 -21
-45 -94 -86 -122 -69 -14 9 -23 5 -47 -21 -17 -18 -34 -43 -37 -57 -6 -22 -42
-47 -90 -63 -9 -3 -20 -14 -23 -23 -18 -54 -37 -81 -68 -98 -19 -10 -37 -28
-40 -39 -3 -12 -29 -46 -57 -76 -28 -30 -57 -67 -65 -81 -7 -15 -26 -37 -41
-50 -15 -13 -61 -68 -101 -121 -41 -53 -80 -99 -87 -102 -8 -3 -26 -24 -42
-48 -15 -24 -51 -67 -80 -97 -29 -30 -53 -58 -53 -62 0 -4 -8 -10 -18 -13 -10
-3 -30 -30 -44 -59 -15 -28 -40 -68 -57 -87 -17 -19 -60 -80 -95 -135 -36 -55
-72 -107 -80 -116 -9 -9 -16 -18 -16 -22 0 -7 -21 -40 -136 -210 -43 -64 -88
-132 -98 -150 -11 -17 -33 -50 -51 -72 -57 -73 -201 -299 -265 -415 -35 -63
-71 -126 -80 -140 -101 -148 -277 -445 -371 -625 -45 -88 -95 -180 -111 -204
-15 -25 -28 -49 -28 -54 0 -21 -98 -254 -170 -402 -43 -88 -89 -187 -102 -220
-41 -97 -68 -170 -68 -180 0 -6 -16 -48 -35 -93 -19 -46 -66 -174 -104 -285
-38 -111 -87 -251 -108 -312 -22 -60 -47 -141 -57 -180 -10 -38 -29 -108 -42
-155 -52 -185 -213 -850 -224 -925 -6 -44 -18 -119 -26 -167 -12 -71 -12 -91
-2 -107 10 -17 10 -25 -5 -50 -9 -16 -17 -38 -17 -49 0 -11 -7 -33 -15 -48
-19 -36 -19 -52 0 -88 19 -35 19 -36 -1 -36 -10 0 -14 6 -10 15 3 9 0 15 -9
15 -8 0 -15 -7 -15 -15 0 -8 -7 -15 -15 -15 -23 0 -29 -26 -11 -51 14 -20 14
-23 -2 -35 -9 -7 -27 -10 -40 -7 -17 4 -21 2 -16 -11 4 -10 1 -16 -9 -16 -9 0
-20 -8 -26 -17 -8 -14 -12 -15 -25 -4 -9 7 -16 19 -16 25 0 7 -6 18 -13 25 -6
6 -13 29 -13 49 -3 56 -14 95 -37 119 -12 14 -18 30 -14 43 3 13 -1 28 -12 39
-10 10 -22 40 -25 65 -4 27 -16 54 -27 64 -15 13 -19 30 -19 74 0 52 -2 58
-20 58 -17 0 -19 5 -14 25 8 31 -3 95 -17 95 -5 0 -12 -14 -16 -30 -8 -43 -23
-47 -24 -8 -1 22 -3 26 -6 11 -5 -27 -29 -36 -45 -18 -34 38 -39 47 -33 65 4
11 2 20 -3 20 -16 0 -40 -34 -49 -70 -7 -25 -15 -35 -29 -35 -16 0 -19 8 -21
49 -3 54 -18 82 -29 50 -18 -57 -29 -77 -55 -99 -16 -13 -29 -28 -29 -34 0 -5
-10 -11 -22 -13 -18 -2 -28 6 -44 37 -26 48 -40 54 -46 21 -3 -14 -2 -23 2
-21 12 8 17 -17 10 -55 -5 -34 -6 -34 -18 -12 -14 25 -32 29 -32 7 0 -8 -4
-15 -10 -15 -5 0 -10 5 -10 10 0 6 -4 10 -8 10 -5 0 -14 -22 -20 -49 -7 -29
-24 -62 -42 -82 -17 -19 -26 -35 -20 -37 15 -5 12 -38 -5 -52 -18 -15 -19 -40
-4 -74 9 -19 9 -36 -1 -70 -11 -39 -10 -51 4 -85 15 -39 13 -71 -5 -71 -5 0
-9 -577 -9 -1381 0 -1373 0 -1381 20 -1410 33 -45 84 -165 124 -289 53 -161
62 -188 85 -250 52 -138 128 -191 293 -206 l65 -5 61 51 c52 42 64 59 77 103
8 28 14 75 14 102 -1 64 -101 486 -154 650 -37 116 -237 916 -254 1020 -6 33
-13 103 -16 155 -3 52 -10 112 -16 133 -14 54 -17 323 -3 337 7 7 24 8 50 2
28 -6 43 -16 54 -37 21 -42 41 -56 70 -51 18 3 32 -3 49 -20 13 -13 29 -24 36
-24 28 0 65 20 65 35 0 11 9 15 33 13 23 -1 40 5 56 21 13 13 29 20 37 17 9
-3 23 -2 33 3 13 8 24 3 45 -20 15 -16 35 -29 45 -29 9 0 25 -10 35 -22 15
-18 16 -20 2 -15 -30 12 -17 -27 17 -50 22 -15 44 -21 72 -19 41 3 41 2 120
-70 22 -20 24 -20 28 -3 6 24 70 36 105 19 16 -7 22 -15 15 -17 -23 -8 -13
-32 20 -48 21 -10 50 -14 85 -11 48 4 54 3 62 -18 7 -20 88 -71 97 -62 2 2 -1
15 -8 28 -15 34 4 72 32 63 11 -4 19 -2 19 4 0 18 28 12 34 -7 4 -11 18 -25
33 -33 44 -23 66 -48 54 -63 -13 -15 -5 -27 13 -20 7 3 19 -2 26 -11 11 -13 9
-15 -9 -15 -11 0 -21 -6 -21 -13 0 -21 57 -80 65 -68 15 25 26 8 23 -36 -2
-38 -8 -50 -26 -59 -15 -7 -20 -14 -13 -18 6 -4 11 -16 11 -28 0 -13 5 -18 14
-15 27 11 62 -36 70 -92 8 -62 39 -111 66 -104 15 4 19 -2 23 -34 3 -33 5 -35
12 -15 4 12 11 22 16 22 5 0 5 -7 2 -17 -4 -11 -3 -14 5 -9 15 9 42 -17 42
-41 1 -15 5 -13 21 10 23 30 44 35 53 12 3 -8 12 -15 20 -15 8 0 17 -9 21 -19
4 -12 12 -18 20 -15 8 3 22 -1 30 -10 9 -9 29 -16 44 -16 16 0 37 -10 51 -25
13 -14 27 -25 31 -25 4 0 22 -13 40 -30 22 -20 37 -26 43 -20 14 14 26 12 26
-5 0 -8 8 -15 18 -15 9 0 29 -11 44 -25 30 -28 47 -31 81 -13 12 6 29 14 37
18 10 5 14 19 12 39 -3 37 24 55 40 27 7 -13 13 -15 23 -6 16 14 35 5 35 -16
0 -8 5 -14 10 -14 6 0 10 -11 10 -24 0 -13 9 -34 19 -48 12 -15 18 -36 16 -53
-3 -30 12 -75 26 -75 10 0 29 -58 29 -92 0 -16 6 -31 15 -34 8 -4 15 -14 15
-24 0 -21 29 -35 44 -20 14 14 26 12 26 -5 0 -8 -8 -19 -19 -24 -18 -10 -17
-13 8 -65 14 -31 31 -56 37 -56 6 0 17 -6 24 -14 6 -8 18 -12 26 -9 10 4 14
-3 14 -26 0 -25 4 -31 21 -31 14 0 19 -5 16 -13 -10 -25 10 -39 59 -40 44 -2
49 0 48 20 0 18 5 21 29 21 16 -1 31 -7 33 -15 14 -46 15 -46 26 -35 7 7 29
12 50 12 40 0 43 5 38 57 -1 17 3 21 14 17 9 -3 16 -1 16 6 0 7 8 9 20 5 14
-5 20 -2 20 10 0 23 28 30 49 11 10 -9 20 -13 23 -10 11 10 46 -15 54 -38 7
-22 7 -22 14 -3 4 11 2 31 -5 45 -7 14 -15 43 -18 65 -4 22 -8 47 -9 55 -2 8
2 16 7 17 6 2 10 -7 10 -18 0 -11 8 -25 18 -30 14 -8 17 -6 17 14 0 36 -20 89
-47 120 -13 16 -20 34 -16 39 4 7 13 3 25 -11 22 -28 45 -21 54 16 12 56 14
58 30 35 19 -28 32 -28 36 1 2 14 9 21 20 21 14 -1 17 3 11 25 -6 24 -6 25 11
8 18 -18 52 -24 41 -7 -3 6 1 7 10 4 15 -6 14 -17 -2 -61 -3 -7 2 -13 11 -13
9 0 19 -15 26 -38 13 -51 40 -75 74 -66 20 5 26 2 26 -10 0 -9 -6 -13 -15 -10
-18 7 -39 -37 -22 -47 5 -4 6 -12 3 -18 -4 -6 0 -11 9 -11 14 0 16 -7 10 -40
-5 -32 -3 -41 10 -46 10 -4 22 1 30 12 14 18 14 17 15 -8 0 -16 -4 -28 -10
-28 -18 0 -11 -46 10 -65 21 -19 27 -45 10 -45 -5 0 -10 -6 -10 -14 0 -8 -6
-16 -13 -19 -10 -4 -11 -19 -6 -63 12 -94 17 -116 28 -127 6 -6 11 -20 11 -31
0 -12 11 -43 25 -71 13 -27 25 -56 25 -62 0 -7 4 -13 10 -13 5 0 7 -7 3 -16
-7 -18 53 -83 77 -84 13 0 13 -1 0 -10 -8 -5 -11 -10 -6 -10 5 0 3 -7 -4 -15
-11 -13 -9 -20 13 -43 15 -16 27 -33 27 -40 0 -7 5 -12 10 -12 6 0 10 -6 10
-13 0 -8 9 -22 20 -32 13 -12 18 -25 14 -38 -4 -14 0 -25 15 -37 13 -9 24 -29
25 -44 2 -16 7 -31 12 -35 5 -3 14 -17 20 -31 6 -14 20 -45 32 -70 11 -25 24
-60 27 -78 4 -17 10 -32 13 -32 4 0 12 -12 19 -27 41 -95 59 -129 177 -348 44
-80 145 -241 171 -272 6 -6 28 -34 50 -63 22 -28 63 -79 91 -113 27 -34 68
-89 89 -122 22 -33 42 -62 45 -65 3 -3 26 -30 51 -60 68 -81 178 -185 324
-307 137 -114 229 -198 408 -373 112 -108 149 -155 161 -202 12 -51 291 -318
379 -362 21 -11 52 -37 69 -59 27 -34 91 -72 110 -65 3 2 16 -9 27 -23 11 -15
44 -39 73 -54 29 -15 62 -36 74 -46 11 -10 26 -19 32 -19 7 0 12 -4 12 -9 0
-5 15 -14 33 -22 17 -7 56 -31 86 -53 64 -46 121 -59 121 -26 0 28 13 25 33
-9 19 -32 75 -56 106 -46 11 3 30 1 41 -5 12 -7 24 -9 27 -7 6 6 -33 47 -45
47 -18 0 -62 57 -68 88 -9 42 5 41 48 -7 20 -22 48 -42 66 -46 18 -3 32 -11
32 -16 0 -5 9 -9 20 -9 11 0 20 -4 20 -10 0 -6 -10 -6 -27 1 -35 13 -52 -9
-24 -31 13 -12 17 -25 13 -48 -3 -24 0 -32 11 -32 8 0 17 -7 21 -15 3 -8 13
-15 22 -15 13 0 15 6 10 31 -4 22 -2 29 7 26 6 -2 13 -14 13 -26 1 -12 11 -31
23 -42 11 -11 21 -26 21 -34 0 -23 58 -81 70 -69 5 5 28 8 51 6 30 -3 43 -10
51 -27 18 -39 57 -40 71 -2 6 18 59 -14 71 -44 8 -19 16 -27 20 -20 10 15 26
4 20 -13 -3 -9 3 -17 16 -21 28 -9 37 1 22 25 -7 12 -8 21 -2 25 15 9 32 -5
26 -21 -4 -10 3 -14 22 -16 15 0 34 -2 42 -2 10 -1 14 -9 12 -24 -3 -22 23
-33 30 -12 6 18 68 0 68 -20 0 -18 53 -70 71 -70 5 0 9 9 9 20 0 27 25 36 57
21 22 -10 25 -16 20 -47 -6 -38 12 -56 36 -36 15 13 31 4 40 -20 3 -10 13 -18
21 -18 21 0 9 30 -21 53 -13 10 -23 23 -23 28 0 17 30 22 46 8 27 -22 87 -39
99 -29 27 22 22 -5 -6 -32 -16 -17 -33 -28 -36 -24 -4 3 -3 6 1 6 4 0 1 7 -8
15 -8 8 -20 15 -27 15 -8 0 -7 -4 4 -13 9 -6 21 -24 26 -39 14 -36 44 -39 35
-3 -7 27 4 32 25 12 11 -10 12 -8 6 11 -8 29 15 30 33 1 9 -14 10 -24 3 -33
-8 -9 1 -21 35 -44 25 -18 49 -30 55 -27 14 9 11 23 -6 21 -16 -1 -63 69 -53
79 3 3 21 -3 39 -14 19 -10 61 -29 94 -41 34 -11 66 -30 73 -41 7 -11 8 -19 2
-19 -5 0 -10 -5 -10 -11 0 -7 10 -5 25 5 21 14 25 14 25 2 0 -21 25 -32 87
-41 49 -6 52 -8 55 -38 2 -20 8 -31 16 -29 39 8 93 3 108 -9 11 -9 35 -13 71
-11 56 4 56 4 57 -48 1 -22 6 -25 45 -27 24 -2 49 -7 55 -12 6 -5 26 -12 44
-16 18 -4 46 -18 62 -32 22 -18 34 -22 43 -15 14 12 57 12 57 1 0 -3 18 -4 39
-2 30 4 44 0 58 -14 15 -15 24 -17 41 -10 26 12 86 1 102 -18 18 -22 50 -19
50 5 0 26 6 25 34 -5 19 -20 29 -24 55 -19 17 4 34 10 37 15 9 15 34 -2 34
-23 0 -15 5 -19 20 -15 13 3 20 0 20 -9 0 -7 6 -11 14 -8 8 3 17 1 21 -5 3 -6
10 -11 16 -11 14 0 11 26 -6 40 -19 16 -19 30 0 30 8 0 15 -6 15 -13 0 -34 88
-65 105 -37 5 8 11 7 20 0 8 -7 19 -9 25 -5 5 3 17 -1 26 -10 11 -11 25 -14
45 -10 17 4 37 1 51 -8 14 -9 49 -15 87 -15 39 0 66 -5 71 -12 5 -8 10 -8 14
-2 3 5 22 13 42 17 27 5 41 2 55 -11 18 -17 20 -16 33 1 7 10 22 20 32 22 35
8 109 3 112 -7 5 -15 29 -12 57 6 20 13 31 14 56 5 21 -7 36 -8 44 -1 16 13
122 5 141 -11 12 -10 19 -8 37 9 23 22 62 26 85 9 9 -7 17 -6 24 1 16 16 37
15 69 -2 18 -9 41 -11 80 -5 30 4 70 5 89 2 25 -3 40 0 49 11 9 10 22 13 42 9
17 -3 35 0 44 7 10 8 30 10 61 5 40 -6 46 -4 51 13 7 29 42 36 52 10 7 -19 8
-19 24 -4 9 10 21 15 26 11 5 -3 12 -1 16 5 3 5 17 10 29 10 13 0 29 7 36 15
14 17 25 12 25 -13 0 -9 7 -17 15 -17 9 0 15 9 15 25 0 30 10 46 34 60 14 7
26 3 52 -15 38 -29 51 -32 43 -10 -4 9 -1 15 7 15 7 0 23 10 36 22 l23 21 0
-21 c0 -24 35 -32 42 -10 6 16 48 21 64 7 15 -12 34 -4 34 15 0 8 13 13 36 13
28 0 38 -6 47 -24 11 -24 31 -30 42 -13 3 5 0 18 -7 29 -9 15 -9 23 2 35 12
15 15 15 32 -4 24 -25 52 -27 44 -2 -10 32 6 43 48 30 29 -9 39 -9 45 0 4 7
22 16 39 21 28 8 32 7 32 -10 0 -10 5 -19 10 -19 9 0 14 14 12 32 -1 3 6 12
14 19 13 11 18 10 25 -4 12 -21 39 -22 39 -2 0 16 38 35 70 35 10 0 22 -10 25
-21 7 -21 8 -21 30 7 20 25 28 28 74 26 28 -1 51 3 51 8 0 14 37 12 46 -2 5
-8 10 -7 18 3 15 21 65 39 101 38 17 0 43 3 59 7 21 5 27 4 22 -5 -4 -6 -2
-11 4 -11 6 0 11 12 10 28 -3 43 -1 46 19 21 18 -22 20 -23 27 -6 7 20 91 64
101 53 3 -3 12 -1 20 6 11 9 15 7 20 -10 8 -32 23 -27 23 8 0 35 23 49 51 32
23 -15 32 -15 24 -2 -3 6 4 10 16 10 12 0 27 8 34 17 11 14 16 15 43 4 32 -14
57 -7 46 11 -4 7 -2 8 5 4 6 -4 14 0 17 9 11 28 43 39 63 21 19 -18 41 -21 41
-7 0 5 -6 12 -12 14 -20 8 41 54 82 63 19 4 43 6 53 5 11 -2 20 5 23 16 6 20
55 49 51 29 -1 -6 5 -11 13 -11 8 0 14 6 12 14 -3 14 25 51 40 51 4 0 8 -11 8
-25 0 -33 17 -31 58 5 28 24 32 32 23 48 -7 14 -7 24 3 37 16 23 36 12 36 -20
0 -35 18 -40 32 -10 6 14 17 24 23 21 13 -5 65 39 65 54 0 5 15 12 33 15 22 5
39 18 54 42 13 19 23 39 23 44 0 11 -8 9 73 15 43 3 67 1 67 -6 0 -20 21 -10
30 15 12 31 38 33 42 2 4 -26 43 -31 71 -8 9 8 29 15 45 17 63 5 112 17 112
28 0 6 7 3 15 -8 14 -18 15 -18 51 3 24 14 46 20 61 16 13 -3 23 -1 23 5 0 14
53 13 68 -2 9 -9 18 -9 37 0 23 11 25 16 19 47 -4 24 -2 35 5 35 7 0 9 -4 6
-10 -3 -5 3 -10 14 -10 12 0 21 5 21 10 0 6 7 10 15 10 8 0 15 -7 15 -15 0 -8
12 -17 28 -21 15 -3 32 -7 39 -9 7 -2 15 0 18 5 3 4 23 11 45 15 27 4 48 17
65 37 20 24 26 27 31 14 11 -28 26 -17 22 14 -4 28 -3 29 12 15 22 -20 53 -9
45 15 -4 14 -1 16 20 12 14 -2 25 -8 25 -13 0 -5 11 -3 25 3 24 11 35 48 14
48 -5 0 -7 5 -4 10 4 6 1 17 -5 25 -10 13 -8 15 14 15 19 0 26 -5 26 -20 0
-14 7 -20 21 -20 16 0 19 4 14 19 -4 14 0 23 14 31 17 8 22 7 31 -10 9 -17 14
-18 32 -9 17 9 19 17 14 49 -5 34 -3 40 16 46 13 4 25 7 28 6 3 0 14 8 25 18
14 13 28 17 43 13 17 -4 24 -1 28 13 5 18 46 44 70 44 6 0 19 11 27 24 9 13
49 48 89 79 71 53 136 116 217 207 28 31 37 48 30 56 -7 8 -6 14 1 19 5 3 10
-1 10 -9 0 -19 5 -20 31 -6 10 6 19 17 19 25 0 8 4 15 8 15 9 0 152 135 152
143 0 3 16 24 37 46 29 32 39 38 50 29 20 -16 103 76 103 114 0 15 13 46 29
70 15 24 31 56 35 71 4 16 16 31 30 37 13 5 27 13 30 18 3 5 22 13 41 16 28 6
35 11 35 30 0 13 -10 30 -21 38 l-22 14 28 29 c15 17 33 29 40 27 18 -3 28 28
14 44 -9 11 -8 19 6 34 9 10 22 18 27 17 6 -1 12 7 14 18 1 11 8 21 14 23 6 2
8 17 4 37 -5 26 -2 35 13 43 10 5 23 7 30 5 6 -2 15 6 19 19 10 34 44 76 65
81 12 3 19 14 19 29 0 13 6 33 14 43 12 16 16 17 30 6 14 -12 18 -9 31 22 8
19 19 37 25 39 6 2 12 18 12 36 1 18 6 32 13 32 20 0 45 35 45 63 0 26 30 53
44 40 10 -10 35 30 36 57 1 28 21 60 38 60 20 0 41 41 36 74 -5 27 -1 34 31
55 30 20 74 65 103 106 22 31 33 65 28 83 -6 16 -1 22 27 31 27 9 39 22 58 64
13 28 34 66 46 83 13 17 23 34 23 39 0 4 26 60 59 124 32 64 68 145 81 181 12
36 31 81 41 100 24 46 99 226 99 238 0 6 7 12 15 16 23 8 36 54 36 123 0 61
14 86 22 40 4 -26 8 -17 26 57 8 33 8 52 1 61 -17 21 19 160 50 192 47 49 64
105 40 129 -7 7 -2 36 16 90 14 43 30 99 34 124 5 25 14 65 21 89 10 38 10 45
-4 53 -18 10 -17 16 23 113 7 17 13 53 14 80 1 28 12 74 24 104 13 33 19 64
15 82 -3 16 0 35 6 43 6 8 29 65 50 127 21 63 43 125 49 139 30 73 52 166 47
192 -6 26 6 94 38 218 6 25 10 51 9 59 -2 7 6 50 17 95 11 44 29 119 41 166
35 145 47 186 74 243 33 68 48 82 74 68 25 -13 39 -105 21 -144 -15 -33 -6
-55 26 -67 14 -5 25 -16 25 -24 0 -8 13 -17 28 -21 19 -4 31 -15 39 -34 11
-30 73 -68 92 -57 16 10 61 -5 61 -20 0 -9 11 -14 33 -14 17 1 49 -2 70 -6 25
-4 43 -2 54 7 9 8 39 13 74 13 33 0 59 3 59 7 0 4 10 9 22 11 30 4 33 23 9 47
-12 12 -21 28 -21 36 0 16 29 21 31 5 1 -5 3 -14 4 -20 1 -5 3 -13 4 -17 0 -4
6 -2 13 5 7 7 20 12 29 12 26 0 30 13 13 45 -14 27 -13 31 18 76 21 31 36 45
42 39 16 -16 26 -12 26 9 0 11 9 23 20 26 23 7 27 47 6 64 -8 6 -16 21 -19 32
-5 19 -2 21 25 15 23 -5 28 -3 21 7 -12 15 -4 44 20 77 15 21 19 23 27 10 8
-12 11 -11 16 8 4 13 14 22 25 22 11 0 19 6 19 13 0 7 9 18 20 25 11 7 20 19
20 27 0 9 10 15 25 15 16 0 25 6 25 15 0 8 7 15 15 15 22 0 38 39 32 81 -5 40
9 62 24 38 5 -8 6 -22 3 -31 -7 -22 9 -23 26 -3 10 13 10 19 -5 35 -16 18 -16
20 2 44 10 14 24 23 31 21 6 -2 12 0 12 5 0 6 -4 10 -10 10 -5 0 -10 16 -10
36 0 34 2 36 25 30 18 -5 25 -2 25 9 0 8 -4 15 -10 15 -5 0 -10 6 -10 14 0 8
-7 16 -15 20 -20 7 -19 32 3 54 32 32 10 173 -26 170 -47 -4 -60 2 -57 25 1
12 6 30 10 40 5 12 2 22 -10 31 -13 9 -15 21 -10 52 14 83 15 103 5 109 -5 3
-10 16 -10 28 0 12 -5 29 -10 37 -9 13 -12 12 -25 -4 -8 -11 -18 -16 -22 -13
-4 4 -1 13 5 19 15 15 15 43 0 71 -7 12 -14 31 -15 42 -2 11 -12 38 -23 61
-11 22 -20 51 -20 65 0 13 -12 51 -25 84 -14 33 -25 67 -25 76 0 9 -7 22 -16
30 -9 7 -13 21 -10 33 7 30 -21 106 -50 137 -24 25 -81 113 -120 184 -19 35
-81 78 -101 71 -8 -3 -18 4 -25 18 -13 29 -37 24 -31 -7 6 -35 -9 -46 -68 -49
-54 -3 -56 -4 -43 -23 27 -38 10 -80 -19 -50 -23 22 -47 8 -47 -29 l-1 -31
-25 29 c-27 31 -46 27 -26 -5 7 -11 10 -25 6 -30 -4 -8 -9 -7 -14 1 -5 8 -13
1 -24 -20 -18 -38 -21 -66 -6 -75 6 -3 10 -15 10 -25 0 -10 8 -25 19 -32 23
-16 36 -54 21 -63 -7 -4 -20 2 -31 14 -24 26 -38 27 -46 4 -4 -10 -11 -21 -17
-25 -7 -4 -5 -15 4 -32 16 -32 9 -41 -20 -26 -28 15 -38 5 -21 -22 12 -19 11
-23 -4 -34 -11 -8 -15 -20 -11 -32 4 -11 0 -24 -9 -32 -18 -15 -20 -81 -4 -97
16 -16 3 -47 -16 -39 -8 3 -22 9 -30 12 -10 4 -15 0 -15 -14 0 -11 7 -25 15
-32 21 -17 19 -42 -2 -38 -11 2 -18 13 -18 27 0 20 -8 26 -39 35 -29 8 -42 20
-55 46 -10 22 -24 36 -39 38 -12 2 -22 7 -22 12 0 5 -6 15 -13 22 -7 7 -20 26
-30 41 -23 36 -74 67 -109 67 -16 0 -28 5 -28 10 0 21 -29 9 -42 -17 -18 -39
-45 -41 -59 -6 -6 15 -18 40 -26 56 -14 26 -13 27 11 27 14 0 27 4 30 9 6 9
-27 79 -56 121 -10 13 -21 39 -24 57 -3 18 -12 37 -20 44 -8 6 -14 26 -14 44
0 18 -7 38 -15 45 -8 7 -15 25 -15 40 0 16 -7 30 -15 34 -10 3 -15 19 -15 47
0 24 -6 50 -13 58 -8 9 -22 52 -32 96 -10 44 -24 86 -32 93 -7 7 -13 27 -13
43 0 17 -8 36 -20 46 -12 11 -20 30 -20 49 0 17 -6 37 -14 43 -8 6 -17 31 -20
56 -4 24 -13 49 -21 55 -8 6 -19 36 -25 65 -6 29 -18 59 -26 65 -7 7 -14 25
-14 41 0 30 -29 113 -60 169 -10 19 -35 67 -55 105 -20 39 -47 90 -60 115 -13
25 -24 52 -24 61 -1 9 -10 24 -21 34 -11 10 -20 28 -20 41 0 13 -11 44 -25 70
-14 26 -25 53 -25 59 0 7 -7 15 -15 19 -9 3 -15 18 -15 36 0 20 -9 38 -25 52
-14 12 -25 26 -25 30 0 24 -54 118 -75 132 -14 9 -25 24 -25 34 -1 28 -55 117
-75 121 -10 1 -22 -4 -27 -13 -5 -9 -16 -16 -25 -16 -13 0 -14 8 -9 39 7 44
-10 71 -45 71 -18 0 -19 2 -5 15 15 16 14 28 -11 75 -7 14 -13 32 -13 41 0 8
-11 25 -25 37 -14 12 -25 29 -25 37 0 8 -9 20 -20 27 -11 7 -20 21 -20 30 0
10 -8 26 -17 36 -10 10 -26 34 -35 54 -12 26 -23 36 -38 35 -11 -1 -20 -5 -20
-9 0 -4 -7 -8 -15 -8 -18 0 -20 31 -3 48 9 9 6 18 -15 40 -15 15 -27 34 -27
41 0 7 -9 20 -20 29 -11 10 -31 37 -45 62 -13 25 -33 61 -44 81 -11 20 -31 47
-45 60 -14 13 -26 31 -26 39 0 13 -48 67 -105 120 -9 8 -43 43 -75 78 -32 34
-63 62 -69 62 -13 0 -61 48 -61 60 0 5 -12 16 -27 24 -26 13 -326 316 -400
403 -40 47 -83 111 -83 123 0 6 -9 15 -20 22 -11 7 -20 21 -20 30 0 11 -8 18
-19 18 -19 0 -81 68 -81 88 0 5 -8 13 -17 16 -12 5 -14 9 -5 18 16 16 15 28
-3 28 -9 0 -18 -7 -21 -15 -8 -21 -60 19 -73 57 -7 18 -17 28 -30 28 -14 0
-19 5 -15 15 4 8 2 15 -4 15 -5 0 -20 11 -33 25 -25 25 -49 33 -49 15 0 -5 -4
-10 -10 -10 -5 0 -10 5 -10 10 0 20 -45 72 -75 86 -51 25 -71 38 -106 73 -18
19 -48 40 -66 48 -18 7 -33 20 -33 28 0 8 -8 15 -19 15 -10 0 -31 16 -45 35
-15 19 -33 35 -40 35 -7 0 -50 36 -96 80 -46 44 -89 80 -96 80 -7 0 -25 12
-38 27 -20 22 -28 25 -38 15 -19 -19 -28 -14 -44 23 -14 35 -28 44 -39 25 -10
-16 -23 -11 -31 12 -3 12 -19 32 -35 46 -16 13 -29 30 -29 39 0 10 -6 12 -22
7 -17 -5 -28 1 -50 27 -19 22 -31 30 -35 22 -7 -18 -23 -16 -23 1 0 21 -38 45
-60 39 -12 -3 -24 4 -35 21 -25 38 -45 33 -45 -10 0 -20 -4 -33 -10 -29 -5 3
-7 19 -3 35 6 35 -10 60 -35 53 -12 -3 -22 4 -30 21 -13 29 -37 34 -46 11 -5
-14 -9 -14 -36 0 -16 8 -34 24 -40 35 -6 11 -21 20 -34 20 -14 0 -30 10 -40
25 -10 15 -26 25 -41 25 -13 0 -28 7 -33 17 -6 10 -21 16 -40 15 -18 0 -37 7
-48 19 -9 10 -28 19 -40 19 -13 0 -38 9 -55 19 -21 13 -42 18 -59 14 -19 -3
-29 0 -33 11 -4 9 -15 16 -26 16 -14 0 -23 9 -27 25 -7 28 -15 31 -45 13 -17
-11 -22 -10 -39 12 -11 14 -20 31 -20 38 0 19 -37 14 -53 -8 -13 -19 -13 -19
-30 0 -9 11 -23 20 -31 20 -7 0 -21 11 -30 25 -13 20 -21 23 -34 16 -25 -13
-71 -2 -83 21 -8 15 -17 18 -38 13 -23 -5 -29 -1 -39 20 -8 17 -19 25 -38 25
-26 0 -75 40 -87 73 -7 19 -28 22 -43 7 -8 -8 -15 -6 -23 4 -7 8 -19 12 -27 9
-8 -3 -14 0 -14 6 0 14 -33 14 -48 -1 -8 -8 -19 -3 -42 22 -18 19 -36 30 -45
26 -8 -3 -15 -1 -15 5 0 6 -17 8 -45 3 -25 -3 -45 -2 -43 2 4 14 -62 74 -80
73 -11 0 -12 -2 -4 -6 14 -5 17 -33 3 -33 -6 0 -13 5 -16 10 -5 8 -11 7 -21
-1 -11 -9 -21 -4 -48 26 -19 21 -37 32 -40 26 -9 -13 -38 -2 -55 22 -9 13 -16
16 -24 8 -16 -16 -31 -14 -57 9 -24 21 -60 27 -60 10 0 -18 -39 -10 -50 10 -9
16 -19 20 -48 18 -24 -2 -36 1 -35 8 1 7 -7 14 -17 17 -11 3 -20 1 -20 -5 0
-6 -9 -8 -20 -5 -11 3 -20 1 -20 -5 0 -15 -42 2 -71 28 -37 35 -94 49 -122 31
-26 -16 -85 -3 -104 24 -7 9 -32 19 -55 22 -58 8 -69 11 -95 25 -12 7 -40 12
-63 12 -33 0 -43 4 -47 20 -5 19 -43 29 -43 12 0 -5 -15 -9 -33 -10 -24 -1
-35 4 -42 20 -6 12 -16 24 -24 26 -8 3 -11 0 -7 -6 11 -18 -16 -26 -29 -9 -15
21 -62 32 -79 18 -10 -9 -15 -8 -20 4 -3 9 -18 15 -40 15 -26 0 -36 5 -41 20
-4 14 -15 20 -35 20 -22 0 -28 -4 -24 -15 4 -8 1 -15 -5 -15 -10 0 -15 20 -12
42 0 3 -14 5 -31 2 -38 -4 -58 10 -58 42 0 13 -5 24 -10 24 -6 0 -15 11 -20
25 -5 14 -17 25 -25 25 -21 0 -57 -19 -72 -39 -13 -16 -14 -14 -16 29 -2 21
-8 26 -34 28 -21 2 -33 -1 -33 -9 0 -8 -4 -8 -15 1 -8 7 -26 10 -40 8 -17 -4
-25 -1 -25 8 0 8 -7 14 -15 14 -8 0 -12 -6 -9 -13 7 -19 -22 -42 -31 -26 -4 6
-2 15 4 19 9 5 8 10 -3 19 -8 7 -20 10 -26 6 -5 -3 -10 -1 -10 6 0 7 -9 9 -22
6 -12 -4 -28 -1 -35 4 -13 11 -33 4 -33 -12 0 -5 9 -9 20 -9 18 0 19 -2 8 -20
-15 -24 -28 -26 -28 -5 0 20 -32 35 -58 28 -16 -4 -22 -1 -23 11 -1 9 -2 22
-3 29 0 6 -10 12 -21 12 -14 0 -20 -6 -19 -22 1 -31 -19 -29 -36 2 -7 14 -18
25 -24 25 -6 0 -5 -5 2 -12 16 -16 15 -28 -3 -28 -7 0 -18 8 -23 17 -12 21
-42 26 -42 7 0 -8 -9 -14 -20 -14 -14 0 -20 7 -21 23 0 21 -1 21 -9 2 -5 -11
-9 -14 -9 -7 -1 6 -6 12 -12 12 -6 0 -9 -7 -5 -15 6 -17 -9 -20 -20 -4 -4 8
-9 7 -15 -2 -6 -10 -9 -10 -9 -2 0 7 -6 10 -13 7 -7 -2 -26 2 -42 10 -16 9
-32 12 -35 8 -3 -4 -21 -8 -41 -10 -29 -3 -40 1 -53 20 -15 21 -22 14 -17 -15
2 -13 -42 3 -55 19 -6 8 -15 14 -19 14 -4 0 -3 -6 3 -13 8 -10 6 -16 -9 -25
-13 -9 -19 -9 -19 -1 0 8 -4 8 -15 -1 -12 -10 -18 -8 -34 11 l-18 23 -18 -27
c-18 -28 -55 -37 -55 -13 0 8 -7 16 -15 20 -8 3 -12 12 -9 21 11 28 -21 15
-39 -16 -16 -28 -21 -31 -52 -26 -21 4 -33 2 -30 -4 4 -5 2 -9 -3 -9 -5 0 -12
9 -15 21 -5 17 -9 19 -26 9 -18 -9 -19 -14 -10 -32 10 -19 9 -20 -7 -12 -35
16 -102 10 -117 -10 -17 -23 -47 -15 -47 13 0 13 -6 19 -18 18 -11 0 -18 -9
-18 -21 1 -21 -2 -21 -48 -8 -12 3 -17 1 -12 -6 7 -11 -47 -46 -56 -36 -3 2
-11 -2 -18 -11 -7 -8 -17 -15 -23 -15 -6 0 -20 -9 -32 -20 -12 -12 -40 -21
-70 -24 -28 -2 -66 -11 -85 -18 -57 -23 -79 -14 -74 31 3 29 3 29 -44 29 -26
0 -50 -5 -54 -11 -5 -8 -10 -8 -20 1 -21 17 -52 4 -66 -26 -12 -28 -68 -69
-79 -58 -3 3 -12 -2 -18 -11 -11 -15 -13 -15 -20 6 -4 15 -13 21 -23 18 -10
-2 -24 -6 -32 -8 -17 -5 -36 -18 -58 -41 -23 -25 -56 -22 -71 6 -12 22 -24 25
-80 17 -3 -1 4 -7 15 -15 39 -29 5 -26 -45 4 -29 17 -50 26 -47 21 8 -12 -30
-58 -40 -49 -4 4 -2 14 5 21 12 15 5 47 -10 47 -5 0 -9 -7 -9 -15 0 -9 -9 -15
-25 -15 -16 0 -25 6 -25 15 0 19 -9 19 -30 0 -10 -9 -34 -19 -54 -22 -34 -5
-36 -4 -36 21 0 15 -6 26 -14 26 -21 0 -38 -27 -31 -50 5 -14 2 -20 -9 -20 -9
0 -16 9 -16 20 0 24 -26 26 -58 4 -30 -21 -57 -12 -42 15 15 29 12 48 -5 25
-8 -10 -15 -34 -15 -51 0 -18 -4 -33 -9 -33 -12 0 -32 26 -25 33 3 3 -10 23
-30 43 -20 20 -36 31 -36 24 0 -7 -10 -23 -22 -35 -13 -13 -29 -30 -36 -39
-18 -23 -33 -10 -26 21 6 24 5 25 -26 18 -22 -5 -35 -3 -40 5 -6 10 -15 8 -35
-9 -20 -15 -31 -18 -41 -11 -8 8 -14 8 -19 0 -10 -16 -53 -12 -63 6 -9 16 -11
16 -33 0 -13 -9 -30 -16 -39 -16 -9 0 -24 -10 -34 -21 -15 -18 -25 -21 -67
-16 -42 5 -51 3 -62 -13 -6 -11 -21 -20 -32 -20 -11 0 -31 -7 -43 -16 -19 -13
-26 -13 -38 -3 -12 10 -20 6 -47 -22 -33 -34 -87 -52 -87 -28 0 7 -10 3 -23
-9 -13 -12 -31 -22 -39 -22 -9 0 -19 -9 -23 -19 -7 -23 -47 -40 -53 -22 -5 15
-42 -5 -42 -23 0 -13 -20 -26 -41 -26 -5 0 -9 7 -9 15 0 22 -18 18 -31 -7 -7
-13 -18 -26 -25 -31 -7 -4 -16 -23 -20 -42 -3 -19 -10 -35 -15 -35 -17 0 -18
19 -3 50 12 22 13 35 6 42 -8 8 -15 3 -23 -15 -9 -20 -20 -27 -41 -27 -21 0
-31 -6 -38 -25 -10 -25 -26 -33 -32 -15 -6 17 -45 -1 -57 -26 -6 -14 -15 -23
-20 -20 -8 5 -23 -8 -75 -63 -20 -22 -44 -18 -26 4 9 10 7 13 -6 11 -9 -1 -25
-14 -36 -27 -10 -13 -22 -29 -28 -36 -5 -7 -10 -16 -10 -21 0 -5 -7 -15 -15
-22 -13 -10 -19 -9 -36 6 -21 19 -21 19 -50 -16 -16 -19 -29 -29 -29 -22 0 20
-25 13 -49 -14 -12 -14 -39 -32 -59 -41 -36 -14 -149 -104 -165 -131 -5 -7
-19 -17 -33 -22 -15 -6 -22 -15 -18 -25 4 -10 0 -15 -11 -15 -9 0 -13 5 -10
10 3 6 2 10 -4 10 -15 0 -23 -18 -11 -25 15 -9 -5 -32 -43 -51 -19 -10 -27
-21 -25 -32 5 -19 -29 -57 -34 -40 -7 20 -35 1 -43 -29 -8 -32 -61 -82 -87
-83 -19 0 -26 -30 -8 -30 18 0 11 -39 -9 -50 -27 -14 -31 -13 -31 10 0 11 -7
20 -15 20 -21 0 -65 -45 -65 -65 0 -16 -10 -15 -57 2 -7 3 -13 -2 -13 -11 0
-9 -7 -19 -15 -22 -8 -4 -15 -14 -15 -23 -1 -20 -23 -51 -37 -51 -6 0 -14 -10
-17 -22 l-7 -23 -11 23 c-6 12 -15 22 -19 22 -14 0 -39 -43 -39 -67 0 -17 -7
-22 -32 -25 -24 -2 -34 -9 -36 -23 -6 -35 -66 -145 -79 -145 -19 0 -16 13 7
38 11 12 20 28 20 37 0 8 5 15 10 15 6 0 10 7 10 15 0 18 -20 20 -20 3 -1 -7
-26 -31 -56 -53 -54 -39 -55 -41 -51 -83 5 -45 -12 -67 -35 -44 -14 14 -87
-24 -98 -52 -5 -12 -31 -46 -59 -76 -28 -30 -53 -63 -56 -72 -4 -10 -16 -18
-28 -18 -33 0 -50 -15 -43 -37 4 -12 1 -25 -9 -33 -8 -7 -15 -19 -15 -26 0 -8
-9 -14 -20 -14 -11 0 -20 -4 -20 -10 0 -5 -6 -10 -13 -10 -7 0 -25 -12 -40
-26 -27 -24 -27 -27 -10 -39 17 -13 15 -15 -19 -29 -26 -11 -38 -23 -38 -36 0
-12 -6 -23 -14 -26 -14 -5 -36 -55 -36 -78 1 -6 8 -2 18 9 16 19 57 25 80 12
5 -4 8 -16 5 -27 -4 -16 -14 -20 -45 -20 -37 0 -39 -2 -37 -27 2 -32 -10 -83
-20 -83 -4 0 -13 6 -20 13 -10 10 -11 7 -6 -15 5 -20 2 -29 -13 -37 -13 -7
-21 -25 -25 -53 -3 -23 -11 -44 -17 -46 -6 -2 -17 -16 -25 -32 -12 -23 -12
-30 -1 -39 7 -6 17 -7 21 -3 5 4 5 -2 0 -13 -4 -11 -10 -32 -13 -48 -2 -15 -8
-30 -13 -33 -5 -3 -9 -15 -9 -28 0 -12 -5 -27 -11 -33 -6 -6 -19 -43 -29 -83
-10 -39 -25 -79 -33 -88 -8 -10 -18 -32 -22 -51 -11 -52 -49 -114 -79 -129
-27 -13 -34 -40 -16 -58 17 -17 1 -43 -36 -56 -19 -7 -33 -17 -31 -22 2 -5 -5
-18 -15 -28 -9 -9 -21 -30 -24 -45 -4 -16 -14 -33 -23 -39 -8 -7 -16 -25 -16
-40 -1 -19 -9 -32 -23 -39 -12 -5 -22 -15 -22 -22 0 -7 -5 -13 -10 -13 -6 0
-18 -17 -27 -37 -10 -21 -26 -48 -37 -61 -17 -20 -18 -27 -8 -55 7 -19 12 -36
12 -40 0 -12 -65 -42 -90 -42 -16 0 -24 -5 -22 -14 4 -17 -16 -31 -45 -31 -13
0 -24 -8 -28 -20 -4 -11 -28 -57 -53 -101 -26 -44 -54 -92 -62 -107 -29 -53
-64 -107 -77 -120 -7 -7 -13 -19 -13 -25 0 -7 -14 -27 -30 -46 -45 -51 -84
-123 -133 -251 -47 -121 -90 -215 -132 -290 -14 -25 -25 -52 -25 -61 0 -9 -14
-49 -31 -90 -17 -41 -40 -105 -50 -144 -12 -42 -29 -78 -43 -92 -36 -33 -63
-83 -71 -130 -4 -24 -16 -62 -27 -85 -16 -32 -19 -54 -15 -94 4 -42 2 -56 -14
-73 -10 -11 -19 -34 -19 -51 0 -23 -4 -30 -20 -30 -23 0 -24 -3 -20 -92 2 -55
-1 -69 -14 -74 -9 -3 -16 -16 -16 -28 0 -11 -7 -34 -15 -50 -8 -16 -18 -54
-22 -85 -3 -31 -12 -65 -19 -76 -8 -11 -14 -33 -14 -50 0 -48 -10 -72 -35 -85
-19 -10 -22 -17 -15 -31 17 -31 11 -65 -20 -104 -16 -21 -30 -43 -31 -49 -6
-82 -12 -116 -24 -142 -8 -18 -21 -60 -28 -95 -8 -35 -19 -74 -25 -86 -7 -12
-12 -35 -12 -50 0 -16 -5 -34 -11 -40 -5 -5 -11 -25 -11 -42 -1 -17 -5 -34 -9
-37 -4 -2 -5 -27 -2 -54 5 -43 2 -55 -21 -89 -23 -32 -26 -43 -17 -60 15 -26
14 -77 -1 -104 -7 -12 -11 -32 -9 -44 1 -12 -6 -34 -15 -49 -13 -19 -18 -47
-18 -98 -1 -39 -5 -77 -9 -83 -5 -7 -6 -17 -3 -22 3 -5 -1 -14 -10 -21 -18
-15 -10 -70 12 -83 21 -12 17 -30 -6 -24 -16 4 -20 -2 -26 -40 -5 -33 -10 -43
-21 -39 -11 5 -13 -3 -9 -38 4 -32 1 -48 -9 -56 -8 -7 -15 -22 -15 -35 0 -59
-96 -70 -126 -14 -14 28 -44 40 -44 19 0 -16 -30 -12 -36 5 -4 8 -13 15 -21
15 -8 0 -19 14 -25 31 -9 25 -14 30 -34 25 -17 -5 -30 0 -44 16 -12 13 -29 32
-40 43 -10 11 -20 31 -22 45 -2 14 -13 29 -26 35 -16 7 -21 16 -18 29 8 29 -5
76 -20 76 -8 0 -14 -6 -14 -13 0 -21 -48 -43 -62 -29 -8 8 -6 15 6 27 19 19
21 46 4 63 -16 16 -29 15 -25 0 1 -7 -8 -14 -20 -16 -13 -2 -23 -8 -23 -13 0
-19 -52 -8 -75 16 -14 16 -26 22 -30 15 -3 -5 -17 -7 -30 -4 -21 5 -23 3 -21
-18 2 -12 7 -31 11 -41 11 -26 -8 -42 -33 -28 -13 7 -23 7 -27 1 -3 -5 -11 -7
-18 -4 -7 2 -17 -6 -22 -18 -13 -27 -54 -35 -56 -10 -7 89 -5 125 6 177 7 33
16 87 20 120 3 33 12 83 20 110 8 28 30 122 50 210 20 88 43 183 50 210 8 28
24 93 35 145 52 233 96 367 190 590 27 63 77 187 110 275 34 88 94 246 134
350 114 296 199 486 295 660 49 88 125 234 169 325 44 91 96 199 116 240 76
155 128 241 211 346 22 29 60 80 85 114 25 35 71 94 103 133 31 38 57 75 57
81 0 7 12 23 26 37 15 13 47 53 71 89 50 74 92 134 166 235 29 38 65 88 80
110 65 93 252 342 271 360 6 6 33 37 60 70 27 33 61 71 75 85 14 14 38 43 53
65 15 22 73 87 128 145 56 58 113 121 128 140 30 39 169 187 222 235 124 114
189 174 218 203 19 18 54 48 77 68 24 19 70 61 103 92 64 61 176 161 232 208
19 16 68 62 110 102 41 41 87 80 102 88 15 8 34 24 43 36 8 13 16 22 18 20 4
-6 57 18 57 26 0 4 15 13 33 20 36 13 147 95 160 118 4 8 15 14 22 14 8 0 15
4 15 9 0 18 244 180 274 181 6 1 29 9 51 20 22 11 47 20 55 20 8 0 26 9 40 20
14 11 31 20 38 20 8 0 25 9 39 20 14 11 31 20 38 20 7 0 18 6 24 14 7 8 32 24
57 35 24 12 54 32 66 46 13 15 32 25 49 25 15 0 41 11 57 25 17 14 39 25 50
25 11 0 52 18 91 40 39 22 76 40 83 41 7 0 36 14 63 29 28 16 95 52 150 80 55
28 107 55 115 59 8 5 77 39 153 77 118 58 141 66 158 56 15 -10 26 -8 56 9 21
11 48 31 59 44 15 16 26 20 35 14 20 -13 24 -12 58 17 17 14 31 22 31 18 0 -4
5 -3 12 4 7 7 22 12 35 12 12 0 26 6 30 14 13 22 86 62 126 70 21 4 41 14 44
22 7 19 53 18 67 -2 10 -13 16 -14 41 -2 17 7 36 18 43 25 7 7 19 13 27 13 7
0 15 5 17 11 2 5 23 10 48 11 24 0 51 4 60 8 30 17 121 41 130 35 5 -3 17 -2
27 3 69 35 158 46 173 23 5 -8 14 -9 32 -2 14 5 35 7 46 4 29 -7 111 40 138
81 14 20 32 37 42 37 9 1 49 3 87 4 65 3 98 11 135 34 64 40 134 54 123 25 -4
-12 -1 -15 13 -12 11 2 19 12 19 22 0 13 12 22 43 31 23 7 42 9 42 4 0 -15 27
-10 34 6 4 11 20 15 56 15 36 0 52 4 56 15 4 11 21 15 56 15 49 0 86 13 100
34 5 7 8 4 8 -6 0 -22 12 -23 51 -2 17 8 36 13 43 11 7 -3 28 2 47 11 18 8 45
16 59 18 104 11 125 15 133 23 5 5 24 7 42 4 18 -3 41 0 52 5 14 8 31 7 62 -4
34 -11 51 -12 76 -4 25 8 46 8 87 -3 43 -11 63 -11 108 0 30 6 75 13 100 14
25 1 64 5 87 10 78 16 131 20 138 9 3 -5 15 -10 27 -10 23 0 87 -28 106 -47 7
-7 29 -15 50 -19 20 -4 47 -15 60 -24 12 -10 31 -16 41 -13 11 3 28 -4 40 -16
23 -23 43 -26 70 -11 13 7 27 2 56 -17 31 -21 42 -24 56 -14 26 16 56 14 63
-4 7 -20 33 -19 45 2 9 16 12 16 48 -4 31 -18 42 -19 60 -10 23 12 175 13 226
1 18 -4 34 -1 45 8 36 31 97 51 156 52 88 1 206 -12 321 -36 55 -11 125 -23
155 -28 30 -5 100 -20 155 -34 145 -38 185 -47 230 -52 22 -2 56 -9 75 -14 60
-15 362 -80 425 -91 63 -11 242 -56 360 -89 39 -11 140 -38 224 -61 249 -65
480 -144 726 -248 127 -54 289 -121 360 -150 197 -80 495 -230 640 -321 72
-46 226 -136 343 -202 240 -133 341 -199 587 -379 94 -69 206 -149 250 -179
186 -125 347 -254 485 -391 80 -79 187 -181 237 -227 51 -45 136 -137 189
-205 54 -67 132 -160 174 -207 98 -109 153 -179 168 -210 7 -14 21 -39 31 -57
55 -89 111 -255 126 -369 l7 -52 -34 -5 c-48 -7 -62 10 -49 59 11 43 0 92 -34
153 -30 52 -115 145 -145 158 -15 7 -33 25 -40 42 -7 17 -21 33 -31 36 -10 3
-36 26 -57 51 -22 24 -44 44 -50 44 -5 0 -17 11 -26 25 -9 14 -20 25 -25 25
-5 0 -25 15 -45 34 -23 21 -59 40 -95 50 -72 20 -71 20 -71 -4 0 -37 -36 -23
-60 23 -12 25 -16 26 -26 13 -6 -9 -14 -16 -18 -16 -11 0 -36 -27 -36 -39 0
-5 -9 -13 -21 -16 -17 -6 -20 -13 -15 -36 5 -28 4 -29 -29 -29 -40 0 -43 -7
-14 -44 12 -15 22 -45 24 -71 2 -25 7 -54 10 -65 4 -11 2 -20 -4 -20 -6 0 -11
-9 -11 -21 0 -11 -11 -35 -24 -52 -20 -26 -24 -42 -21 -81 2 -41 9 -54 44 -90
23 -23 41 -45 41 -48 0 -4 -13 -9 -29 -13 -25 -5 -29 -10 -26 -33 2 -15 4 -30
4 -34 1 -4 13 -8 29 -10 28 -3 28 1 19 -82 -1 -14 7 -23 28 -29 17 -6 37 -12
45 -15 10 -3 3 -8 -17 -15 -36 -11 -42 -24 -15 -34 28 -10 52 -35 52 -55 0
-21 48 -98 62 -98 4 0 13 -11 20 -25 9 -20 14 -22 30 -14 19 10 38 5 38 -11 0
-14 58 -71 64 -62 7 11 63 7 80 -7 17 -14 30 0 22 27 -3 9 1 26 10 37 12 16
18 18 34 7 10 -6 26 -9 33 -6 8 3 22 -2 31 -11 13 -14 19 -15 31 -5 17 14 20
56 5 65 -5 3 -10 19 -10 35 0 16 5 32 10 35 6 4 10 -5 10 -19 0 -26 23 -36 35
-16 9 15 17 95 16 168 -1 50 3 68 19 84 24 26 25 38 5 64 -19 25 -19 64 -1 64
8 0 27 -15 41 -34 15 -20 32 -33 40 -30 7 3 24 0 36 -7 33 -17 89 -74 89 -90
0 -8 20 -41 45 -74 25 -33 45 -67 45 -77 0 -25 36 -91 65 -118 14 -13 25 -32
25 -42 0 -10 8 -26 18 -37 9 -10 36 -49 59 -87 56 -90 98 -137 151 -164 23
-12 45 -26 48 -31 9 -15 42 -10 52 7 7 13 13 14 30 5 11 -6 31 -11 44 -11 13
0 34 -12 47 -25 25 -27 69 -33 88 -14 9 9 19 8 38 -5 26 -17 28 -17 49 3 28
26 37 26 69 1 20 -16 28 -18 34 -8 4 7 19 13 33 13 18 0 26 6 28 22 5 36 22
42 85 31 32 -6 61 -7 64 -4 4 3 1 17 -5 31 -26 57 -7 86 28 43 l17 -22 11 21
c9 17 8 26 -8 46 -27 34 -25 44 9 52 27 6 29 8 20 38 -5 18 -9 38 -9 44 0 18
27 16 34 -3 3 -8 11 -12 17 -9 7 5 5 12 -5 24 -49 53 -86 100 -86 110 0 18 18
13 30 -9 6 -11 17 -20 25 -20 8 0 15 -4 15 -10 0 -5 10 -10 21 -10 21 0 21 3
15 71 -5 48 -14 81 -28 100 -12 16 -18 35 -14 44 3 9 3 22 -1 28 -9 15 -10
127 -1 127 4 0 0 12 -7 27 -8 16 -20 52 -26 81 -7 29 -18 57 -26 63 -7 6 -13
19 -13 28 0 10 -11 32 -25 51 -14 19 -25 38 -25 42 0 13 -61 98 -99 138 -76
81 -89 97 -104 129 -10 19 -17 44 -17 56 0 12 -13 34 -30 48 -16 15 -30 32
-30 38 0 20 -197 244 -405 459 -135 141 -191 205 -230 265 -54 85 -227 289
-362 428 -70 73 -146 155 -167 182 -22 28 -45 55 -51 60 -29 28 -85 104 -98
136 -9 23 -25 40 -45 48 -17 7 -38 24 -47 37 -24 37 -87 73 -118 67 -23 -5
-26 -1 -32 31 -6 28 -15 40 -41 52 -19 9 -40 26 -46 38 -24 45 -169 170 -237
204 -25 13 -57 34 -71 46 -14 12 -38 30 -53 40 -15 9 -32 29 -38 43 -8 22 -14
25 -47 21 -42 -5 -91 19 -116 57 -9 14 -22 22 -30 19 -8 -3 -26 7 -40 24 -19
21 -36 29 -62 30 -36 1 -104 43 -104 63 0 5 -8 9 -17 9 -10 0 -31 9 -48 20
-16 11 -36 20 -43 20 -7 0 -34 16 -59 35 -25 19 -50 35 -55 35 -6 0 -22 9 -36
21 -95 74 -138 99 -167 99 -21 0 -39 8 -53 25 -16 18 -32 25 -57 25 -23 0 -38
6 -42 16 -3 8 -17 20 -30 25 -14 5 -27 18 -30 29 -3 12 -14 20 -28 20 -12 0
-43 11 -69 25 -26 14 -55 25 -66 25 -10 0 -27 11 -38 25 -11 14 -26 25 -34 25
-7 0 -22 6 -33 14 -11 7 -37 19 -57 25 -21 7 -38 19 -38 26 0 8 -10 20 -22 26
-18 10 -24 9 -32 -4 -9 -14 -16 -13 -65 5 -31 11 -74 28 -96 38 -81 35 -174
70 -187 70 -7 0 -22 6 -33 14 -11 7 -51 26 -90 41 -95 37 -251 113 -301 147
-23 16 -48 28 -55 28 -8 0 -32 11 -54 25 -22 13 -46 25 -53 25 -22 0 -126 52
-139 69 -11 14 -12 14 -13 -1 0 -29 -16 -28 -65 3 -27 17 -54 28 -63 24 -14
-5 -57 10 -102 37 -40 23 -141 68 -155 68 -8 0 -20 9 -27 20 -7 11 -16 20 -21
20 -4 0 -42 16 -83 35 -85 40 -90 41 -98 20 -5 -13 -9 -13 -26 -3 -11 7 -20
19 -20 26 0 7 4 11 9 7 16 -9 20 9 5 22 -7 8 -15 9 -19 3 -3 -5 -12 -7 -19 -4
-8 3 -17 1 -21 -5 -9 -16 -22 -13 -42 8 -17 17 -35 24 -106 38 -16 3 -35 17
-44 30 -13 20 -22 24 -44 19 -22 -4 -32 0 -44 17 -13 19 -20 17 -16 -5 0 -5
-8 -8 -18 -8 -11 0 -28 15 -40 35 -15 26 -28 35 -48 36 -15 1 -37 2 -48 3 -11
1 -19 7 -17 14 1 8 -1 11 -6 8 -13 -8 -52 23 -52 41 0 15 -2 15 -17 1 -32 -27
-89 -11 -80 23 4 15 0 19 -19 19 -13 0 -24 -4 -24 -10 0 -5 -5 -10 -11 -10 -6
0 -9 7 -5 15 3 8 1 15 -4 15 -6 0 -10 9 -10 21 0 15 -5 19 -15 15 -11 -4 -15
1 -15 17 0 17 -2 19 -9 7 -6 -8 -7 -18 -4 -23 7 -11 -36 -51 -45 -42 -3 3 0
10 7 14 9 6 11 18 6 40 -4 20 -3 31 4 31 6 0 11 5 11 12 0 6 -7 4 -18 -5 -22
-20 -45 -21 -74 -4 -30 17 -74 60 -71 69 2 4 -2 8 -8 8 -7 0 -9 -9 -6 -21 3
-12 0 -22 -9 -26 -22 -8 -26 1 -15 30 7 17 7 28 1 32 -6 4 -14 -5 -20 -19 -5
-14 -13 -26 -17 -26 -16 0 -83 54 -83 66 0 8 -10 14 -21 14 -18 0 -21 -4 -16
-29 7 -35 0 -43 -25 -30 -13 7 -18 18 -15 29 3 11 -1 21 -9 24 -13 5 -19 -13
-15 -38 1 -5 -9 -2 -23 7 -14 9 -32 14 -40 11 -11 -4 -19 2 -25 17 -5 13 -10
20 -10 16 -1 -4 -9 -3 -19 2 -23 12 -62 3 -62 -14 0 -7 -11 -12 -25 -11 -14 0
-25 6 -25 13 0 7 7 10 15 7 8 -4 15 -1 15 5 0 6 7 11 15 11 8 0 15 5 15 10 0
13 -17 13 -25 0 -3 -6 -18 -7 -32 -4 -23 6 -25 4 -18 -16 6 -20 5 -22 -11 -15
-11 4 -29 9 -41 10 -33 5 -43 14 -43 41 0 16 -7 27 -22 33 -30 11 -48 3 -48
-21 0 -10 4 -17 9 -13 5 3 13 0 16 -6 12 -19 -1 -19 -40 1 -22 11 -33 20 -25
20 7 0 11 2 8 5 -3 3 -16 1 -30 -4 -33 -12 -112 3 -150 31 -30 21 -31 21 -44
3 -8 -10 -14 -15 -14 -11 0 5 -11 1 -25 -8 -22 -15 -25 -15 -37 2 -16 22 -44
22 -40 0 4 -23 -17 -33 -24 -11 -18 56 -24 65 -39 53 -11 -9 -11 -17 -3 -36 6
-13 15 -24 20 -24 4 0 8 -6 8 -14 0 -22 -174 -15 -198 8 -20 17 -47 22 -37 6
8 -12 -15 -13 -34 -1 -7 5 -10 14 -7 20 4 6 1 11 -6 12 -7 1 -2 5 12 9 21 7
22 8 5 9 -11 1 -30 -6 -42 -14 -16 -11 -22 -12 -26 -2 -3 9 -8 9 -22 -3 -16
-14 -17 -13 -11 17 9 39 -7 51 -24 18z m-90 -105 c0 -5 -4 -10 -10 -10 -5 0
-10 5 -10 10 0 6 5 10 10 10 6 0 10 -4 10 -10z m1190 -66 c0 -2 -7 -4 -15 -4
-8 0 -15 4 -15 10 0 5 7 7 15 4 8 -4 15 -8 15 -10z m-3503 -183 c3 -12 11 -17
19 -14 8 3 14 0 14 -6 0 -15 -33 -14 -48 1 -7 7 -12 18 -12 25 0 20 21 15 27
-6z m-450 -118 c-9 -9 -20 -13 -24 -9 -4 4 -1 11 7 16 25 16 35 11 17 -7z
m4723 -33 c0 -5 -2 -10 -4 -10 -3 0 -8 5 -11 10 -3 6 -1 10 4 10 6 0 11 -4 11
-10z m435 -240 c3 -5 1 -10 -4 -10 -6 0 -11 5 -11 10 0 6 2 10 4 10 3 0 8 -4
11 -10z m-4790 -800 c-3 -4 -18 -10 -35 -12 -28 -4 -37 1 -24 15 9 8 64 5 59
-3z m6961 -47 c-7 -7 -26 7 -26 19 0 6 6 6 15 -2 9 -7 13 -15 11 -17z m282
-111 c2 -7 -3 -12 -12 -12 -9 0 -16 7 -16 16 0 17 22 14 28 -4z m-5378 -192
c0 -5 -4 -10 -10 -10 -5 0 -10 5 -10 10 0 6 5 10 10 10 6 0 10 -4 10 -10z
m-313 -51 c-5 -20 -5 -20 20 -4 30 20 36 17 18 -9 -10 -12 -22 -17 -39 -14
-18 4 -26 0 -30 -15 -3 -12 -10 -17 -19 -14 -8 3 -20 0 -26 -6 -8 -8 -14 -8
-22 0 -14 14 23 53 51 53 11 0 23 7 26 15 9 23 27 18 21 -6z m-227 -4 c0 -9
-9 -15 -21 -15 -18 0 -19 2 -9 15 7 8 16 15 21 15 5 0 9 -7 9 -15z m353 -3
c-10 -11 -22 -17 -27 -14 -5 3 -1 11 9 19 27 19 38 16 18 -5z m-243 -7 c0 -8
-9 -15 -20 -15 -20 0 -26 11 -13 23 12 13 33 7 33 -8z m210 -25 c12 -8 11 -10
-7 -10 -13 0 -23 5 -23 10 0 13 11 13 30 0z m120 -10 c0 -12 -29 -20 -35 -10
-9 15 4 30 20 23 8 -3 15 -9 15 -13z m-160 -10 c0 -5 -12 -10 -26 -10 -14 0
-23 4 -19 10 3 6 15 10 26 10 10 0 19 -4 19 -10z m-411 -16 c2 -2 2 -6 -1 -9
-8 -9 -68 7 -62 16 5 8 52 2 63 -7z m171 0 c0 -10 -7 -14 -22 -12 -32 5 -35
28 -4 28 17 0 26 -5 26 -16z m541 -7 c-13 -13 -26 -3 -16 12 3 6 11 8 17 5 6
-4 6 -10 -1 -17z m-1761 -67 c0 -5 -7 -10 -15 -10 -8 0 -15 5 -15 10 0 6 7 10
15 10 8 0 15 -4 15 -10z m2563 -124 c4 -10 1 -13 -8 -9 -8 3 -12 9 -9 14 7 12
11 11 17 -5z m157 4 c0 -5 -7 -10 -16 -10 -8 0 -12 5 -9 10 3 6 10 10 16 10 5
0 9 -4 9 -10z m-390 -14 c6 -8 18 -12 26 -9 8 3 14 0 14 -6 0 -6 -6 -11 -14
-11 -24 0 -66 19 -66 30 0 15 26 12 40 -4z m101 -16 c8 0 20 5 27 12 9 9 12 9
12 0 0 -7 -5 -12 -11 -12 -6 0 -9 -7 -5 -15 3 -10 -1 -15 -12 -15 -22 0 -34 9
-51 40 -14 24 -13 25 6 8 11 -10 26 -18 34 -18z m499 26 c0 -11 -19 -15 -25
-6 -3 5 1 10 9 10 9 0 16 -2 16 -4z m-272 -18 c-3 -7 -11 -13 -18 -13 -7 0
-15 6 -17 13 -3 7 4 12 17 12 13 0 20 -5 18 -12z m-568 -38 c0 -5 -4 -10 -10
-10 -5 0 -10 5 -10 10 0 6 5 10 10 10 6 0 10 -4 10 -10z m500 6 c0 -3 -4 -8
-10 -11 -5 -3 -10 -1 -10 4 0 6 5 11 10 11 6 0 10 -2 10 -4z m164 -5 c3 -5 -1
-11 -9 -15 -9 -3 -15 0 -15 9 0 16 16 20 24 6z m170 -7 c9 -3 16 -13 16 -21 0
-21 -44 -12 -48 10 -4 18 6 21 32 11z m101 -4 c3 -5 1 -10 -4 -10 -6 0 -11 5
-11 10 0 6 2 10 4 10 3 0 8 -4 11 -10z m-155 -20 c0 -5 -2 -10 -4 -10 -3 0 -8
5 -11 10 -3 6 -1 10 4 10 6 0 11 -4 11 -10z m140 -25 c11 -13 8 -15 -14 -15
-25 0 -33 10 -19 23 10 11 19 8 33 -8z m65 -5 c3 -5 -1 -10 -10 -10 -9 0 -13
5 -10 10 3 6 8 10 10 10 2 0 7 -4 10 -10z m135 -11 c0 -11 -3 -11 -24 -3 -23
9 -20 23 4 17 11 -3 20 -9 20 -14z m-5080 -44 c0 -8 -7 -15 -15 -15 -16 0 -20
12 -8 23 11 12 23 8 23 -8z m-179 -85 c-24 -21 -41 -26 -41 -12 0 15 24 32 45
32 19 -1 19 -1 -4 -20z m-51 -38 c0 -13 -12 -22 -22 -16 -10 6 -1 24 13 24 5
0 9 -4 9 -8z m60 -62 c0 -5 -5 -10 -11 -10 -5 0 -7 5 -4 10 3 6 8 10 11 10 2
0 4 -4 4 -10z m-150 -35 c0 -8 -7 -15 -16 -15 -14 0 -14 3 -4 15 7 8 14 15 16
15 2 0 4 -7 4 -15z m10645 -5 c3 -5 1 -10 -4 -10 -6 0 -11 5 -11 10 0 6 2 10
4 10 3 0 8 -4 11 -10z m-4042 -30 c-3 -11 -9 -20 -14 -20 -11 0 -11 3 -3 24 9
23 23 20 17 -4z m-6679 -15 c-4 -8 -12 -15 -20 -15 -8 0 -14 7 -14 15 0 8 9
15 20 15 13 0 18 -5 14 -15z m-126 -61 c-5 -28 -28 -29 -28 -1 0 13 3 27 7 31
10 10 25 -10 21 -30z m-108 11 c-7 -9 -15 -13 -17 -11 -7 7 7 26 19 26 6 0 6
-6 -2 -15z m-10 -65 c0 -5 -7 -10 -16 -10 -8 0 -12 5 -9 10 3 6 10 10 16 10 5
0 9 -4 9 -10z m-40 -64 c0 -3 -4 -8 -10 -11 -5 -3 -10 -1 -10 4 0 6 5 11 10
11 6 0 10 -2 10 -4z m7200 -27 c0 -6 -4 -7 -10 -4 -5 3 -10 11 -10 16 0 6 5 7
10 4 6 -3 10 -11 10 -16z m-7370 1 c0 -5 -4 -10 -10 -10 -5 0 -10 5 -10 10 0
6 5 10 10 10 6 0 10 -4 10 -10z m285 0 c-3 -5 -10 -10 -16 -10 -5 0 -9 5 -9
10 0 6 7 10 16 10 8 0 12 -4 9 -10z m-235 -34 c0 -3 -4 -8 -10 -11 -5 -3 -10
-1 -10 4 0 6 5 11 10 11 6 0 10 -2 10 -4z m-120 -41 c0 -8 -4 -15 -10 -15 -5
0 -10 7 -10 15 0 8 5 15 10 15 6 0 10 -7 10 -15z m40 -34 c0 -6 -4 -13 -10
-16 -5 -3 -10 1 -10 9 0 9 5 16 10 16 6 0 10 -4 10 -9z m-200 -125 c0 -3 -4
-8 -10 -11 -5 -3 -10 -1 -10 4 0 6 5 11 10 11 6 0 10 -2 10 -4z m-310 -235 c0
-13 -26 -32 -33 -24 -8 7 11 33 24 33 5 0 9 -4 9 -9z m-114 -108 c18 -24 17
-30 -6 -36 -17 -4 -20 0 -20 24 0 33 7 36 26 12z m-356 -301 c0 -13 -30 -52
-41 -52 -14 0 -11 18 9 39 18 20 32 26 32 13z m-60 -112 c0 -12 -28 -25 -36
-17 -9 9 6 27 22 27 8 0 14 -5 14 -10z m12510 -560 c0 -5 -2 -10 -4 -10 -3 0
-8 5 -11 10 -3 6 -1 10 4 10 6 0 11 -4 11 -10z m370 -460 c0 -5 -4 -10 -10
-10 -5 0 -10 5 -10 10 0 6 5 10 10 10 6 0 10 -4 10 -10z m160 -115 c0 -26 -14
-33 -25 -15 -9 14 1 40 15 40 5 0 10 -11 10 -25z m-6634 -202 c13 2 29 -2 35
-9 7 -8 21 -11 35 -8 17 4 26 1 30 -10 7 -17 44 -22 44 -6 0 15 57 12 88 -4
15 -7 70 -21 122 -31 52 -9 102 -20 110 -24 8 -5 27 -4 43 1 21 8 33 6 52 -6
27 -18 61 -21 70 -6 10 16 32 12 71 -15 21 -14 44 -23 52 -20 8 3 20 2 26 -3
22 -15 86 -33 97 -26 6 3 32 -3 58 -14 25 -11 98 -37 161 -56 63 -20 135 -50
159 -66 26 -18 52 -28 62 -25 12 4 25 -4 40 -24 21 -29 24 -30 41 -14 17 15
21 15 53 0 19 -9 35 -20 35 -25 0 -4 17 -16 38 -27 20 -10 51 -29 69 -42 17
-13 38 -23 45 -23 8 0 44 -20 80 -44 36 -24 76 -47 89 -51 13 -4 31 -13 39
-20 22 -18 97 -55 113 -55 19 0 67 -53 67 -76 1 -35 34 -88 65 -104 16 -8 36
-23 43 -32 16 -22 45 -23 62 -3 18 22 31 15 44 -24 7 -22 23 -40 45 -52 40
-21 51 -35 51 -67 0 -18 5 -22 28 -20 23 3 43 -15 142 -121 63 -67 134 -148
157 -180 23 -31 52 -69 65 -86 13 -16 31 -46 40 -66 9 -21 49 -73 90 -116 97
-103 111 -125 220 -348 52 -105 121 -242 154 -305 88 -166 179 -383 209 -496
8 -31 19 -61 24 -68 4 -6 14 -42 20 -79 20 -115 58 -222 96 -267 24 -29 35
-52 35 -74 0 -18 8 -72 19 -121 10 -50 19 -110 20 -135 3 -93 49 -278 88 -353
27 -53 34 -139 19 -214 -19 -93 -18 -209 2 -225 13 -11 14 -10 8 12 -13 44
-11 54 8 58 16 3 18 0 13 -26 -3 -16 -1 -34 5 -40 6 -6 8 -22 4 -37 -7 -26 -8
-27 -22 -9 -14 17 -14 12 -9 -51 4 -38 10 -77 15 -85 4 -8 15 -68 25 -132 17
-111 17 -124 1 -265 -9 -81 -24 -215 -32 -298 -7 -82 -16 -168 -19 -190 -2
-22 -9 -89 -15 -150 -5 -60 -14 -125 -19 -143 -5 -18 -7 -47 -4 -65 4 -28 0
-39 -28 -69 -19 -19 -44 -38 -56 -42 -26 -8 -28 -15 -11 -51 10 -22 6 -35 -25
-100 -21 -41 -37 -84 -37 -95 0 -19 -34 -77 -53 -91 -5 -3 -11 -25 -14 -48 -3
-23 -11 -41 -18 -41 -7 0 -18 -6 -24 -14 -9 -11 -8 -18 5 -30 20 -20 12 -43
-20 -57 -32 -15 -37 -31 -24 -67 10 -27 9 -34 -15 -65 -15 -21 -27 -49 -27
-66 0 -21 -6 -32 -19 -36 -11 -3 -22 -19 -26 -34 -3 -16 -15 -46 -26 -67 -10
-21 -19 -45 -19 -54 0 -9 -11 -27 -25 -40 -20 -19 -24 -30 -20 -52 4 -18 3
-28 -5 -28 -7 0 -10 7 -6 18 11 32 -45 -42 -64 -84 -10 -23 -23 -45 -29 -48
-14 -9 -41 -66 -41 -87 0 -22 -21 -69 -30 -69 -4 0 -20 -29 -35 -65 -16 -36
-34 -70 -41 -76 -8 -7 -11 -21 -8 -35 7 -27 -10 -33 -20 -8 -5 13 -12 10 -37
-15 -19 -19 -29 -37 -25 -47 4 -9 -3 -18 -19 -24 -19 -7 -25 -17 -25 -40 0
-16 -4 -30 -10 -30 -5 0 -16 -12 -24 -27 -12 -24 -12 -32 0 -55 9 -17 10 -29
4 -33 -7 -4 -7 -13 0 -26 9 -17 7 -20 -18 -25 -15 -3 -32 -15 -37 -27 -6 -12
-24 -31 -42 -42 -18 -11 -32 -24 -33 -28 0 -18 -76 -97 -92 -97 -13 0 -18 -8
-19 -27 -1 -16 -3 -21 -6 -11 -6 25 -31 30 -43 8 -6 -11 -10 -23 -9 -27 4 -21
-4 -35 -35 -65 -18 -18 -35 -42 -37 -53 -3 -12 -17 -24 -38 -31 -23 -7 -38
-21 -47 -43 -9 -22 -26 -38 -53 -49 -28 -12 -42 -26 -49 -47 -8 -25 -10 -27
-11 -7 -1 33 -37 29 -49 -5 -5 -16 -24 -43 -40 -62 -26 -28 -36 -33 -61 -28
-27 6 -31 3 -51 -41 -12 -26 -35 -60 -50 -75 l-28 -28 -16 23 c-22 31 -41 10
-40 -42 2 -47 -12 -51 -42 -12 -21 26 -23 26 -30 7 -8 -23 -54 -72 -54 -59 0
5 -4 3 -9 -5 -8 -12 -12 -12 -25 -2 -13 11 -22 6 -63 -38 -51 -55 -57 -58 -79
-37 -16 16 -54 10 -54 -9 0 -19 -36 -46 -53 -40 -8 4 -18 2 -22 -4 -3 -6 -14
-11 -24 -11 -10 0 -30 -9 -44 -20 -14 -11 -37 -20 -52 -20 -15 0 -48 -15 -75
-35 -26 -19 -52 -35 -57 -35 -6 0 -18 -9 -29 -21 -30 -33 -50 -40 -77 -28 -21
9 -28 8 -46 -10 -11 -11 -27 -18 -35 -15 -9 3 -19 -3 -26 -16 -10 -18 -18 -21
-46 -17 -30 5 -35 2 -54 -28 -14 -22 -26 -32 -36 -28 -12 5 -11 10 8 31 l23
25 -34 -7 c-19 -3 -40 -11 -48 -18 -8 -6 -26 -12 -40 -13 -13 0 -29 -8 -34
-17 -11 -20 -64 -42 -84 -34 -8 3 -15 1 -15 -5 0 -6 -5 -7 -10 -4 -8 5 -7 11
1 21 19 23 -13 18 -39 -6 -12 -11 -35 -20 -52 -20 -17 0 -40 -5 -51 -11 -18
-9 -19 -7 -13 16 5 22 4 24 -12 18 -20 -7 -34 -22 -34 -37 0 -5 7 -3 15 4 11
9 15 9 15 1 0 -23 -31 -23 -55 -1 l-24 22 -26 -26 c-38 -38 -83 -36 -96 4 -11
30 -49 44 -49 18 0 -7 -7 -22 -15 -32 -14 -19 -16 -19 -28 -2 -12 16 -14 16
-36 -3 -26 -23 -41 -20 -41 9 0 30 -15 31 -40 5 -13 -14 -31 -25 -39 -25 -9
-1 -34 -7 -56 -15 -34 -12 -43 -12 -72 2 -18 8 -33 21 -33 29 0 25 -20 25 -55
-2 -19 -14 -35 -23 -35 -19 0 4 -8 -3 -19 -16 -16 -20 -21 -21 -35 -10 -9 7
-16 26 -16 42 0 40 -18 36 -36 -6 -15 -37 -28 -44 -38 -20 -7 20 -24 19 -69
-5 -31 -17 -37 -17 -37 -5 0 8 6 16 13 16 6 1 -26 5 -73 9 -51 5 -92 4 -103
-2 -13 -6 -28 -6 -47 2 -15 6 -50 10 -76 7 -37 -3 -55 1 -73 15 -29 22 -42 23
-35 3 5 -11 -1 -15 -20 -15 -16 0 -24 4 -20 13 3 9 -6 12 -34 9 -26 -3 -54 3
-82 17 -45 22 -100 28 -100 12 0 -5 6 -12 13 -14 6 -3 0 -6 -15 -6 -32 -1 -45
14 -22 27 10 6 15 16 11 26 -9 23 -112 23 -121 -1 -5 -13 -9 -14 -19 -4 -9 9
-9 14 2 20 19 12 3 19 -54 22 -28 1 -54 5 -60 8 -15 9 -116 30 -147 30 -30 1
-68 28 -68 48 0 7 -12 12 -27 12 -53 -1 -118 21 -124 40 -4 12 -99 51 -136 56
-13 2 -30 10 -39 19 -8 9 -23 16 -33 16 -9 0 -37 13 -62 28 -24 15 -73 41
-109 56 -36 16 -81 40 -100 53 -19 12 -39 23 -45 23 -10 0 -187 84 -255 121
-77 42 -262 129 -274 129 -7 0 -31 12 -52 27 -21 14 -68 40 -104 56 -36 17
-76 40 -90 53 -14 12 -44 32 -68 44 -23 12 -51 33 -61 46 -13 16 -24 21 -40
17 -27 -7 -49 11 -68 59 -8 20 -23 40 -33 43 -10 3 -33 23 -51 43 -18 20 -61
68 -96 106 -35 38 -70 84 -78 102 -8 19 -19 34 -25 34 -14 0 -70 89 -70 112 0
17 -95 118 -112 118 -5 0 -19 -7 -32 -16 -36 -23 -42 0 -11 40 l26 34 -25 56
c-14 32 -31 56 -40 56 -10 0 -14 10 -14 29 1 17 -10 43 -27 66 -16 20 -37 62
-47 92 -11 31 -27 63 -38 72 -10 9 -26 39 -36 66 -10 28 -26 61 -36 74 -10 13
-18 32 -18 42 0 10 -5 21 -10 24 -6 4 -29 45 -52 91 -22 46 -45 87 -49 90 -5
3 -9 14 -9 24 0 11 -13 44 -30 75 -20 37 -29 68 -28 93 0 20 -4 46 -10 57 -46
85 -63 146 -51 185 2 8 -6 19 -18 25 -16 6 -23 18 -23 37 0 21 -5 27 -27 30
-29 3 -45 28 -19 28 13 0 15 6 10 28 -9 38 -13 42 -35 42 -17 0 -18 3 -9 21 9
16 8 25 -5 39 -10 11 -15 26 -11 35 3 9 2 14 -3 11 -4 -3 -18 5 -31 18 -17 19
-20 29 -12 42 10 19 -1 57 -25 82 -7 8 -10 24 -7 37 3 12 1 26 -5 29 -6 4 -11
27 -11 51 0 28 -6 50 -17 61 -14 14 -18 36 -19 100 0 55 -5 90 -16 106 -8 12
-18 35 -22 51 -3 15 -11 27 -16 27 -6 0 -10 18 -10 40 0 23 -6 51 -14 63 -8
12 -17 38 -20 58 -4 21 -13 42 -21 49 -9 7 -15 29 -15 51 0 22 -4 47 -9 57
-23 46 -41 95 -41 112 0 10 -4 21 -9 25 -6 3 -13 27 -16 53 -3 26 -11 55 -16
66 -6 10 -8 35 -4 56 5 29 1 47 -20 84 -14 25 -23 51 -20 56 9 14 14 47 19
110 2 30 5 60 6 65 6 27 -2 48 -27 71 -24 22 -27 33 -30 104 -1 45 2 92 9 107
10 24 29 309 28 415 0 21 6 52 13 70 21 49 31 107 29 165 -1 29 3 55 8 58 14
8 13 42 -1 47 -6 2 -13 34 -16 71 -5 56 -3 68 11 73 9 3 16 15 16 25 0 10 14
40 30 66 32 50 37 81 19 114 -8 16 -7 25 5 38 19 21 21 32 4 28 -20 -4 -21 33
-2 55 11 11 19 25 19 31 2 48 48 167 64 167 5 0 17 26 26 58 9 31 20 62 25 67
4 6 13 26 18 45 6 19 23 67 37 105 15 39 31 84 37 100 11 31 38 67 38 50 0 -6
-7 -35 -15 -65 -8 -30 -13 -56 -11 -58 2 -2 18 23 36 55 18 32 48 74 66 93 18
19 37 53 43 75 6 22 18 51 27 65 15 25 15 25 8 -10 -3 -19 -11 -41 -16 -47 -6
-7 -7 -13 -2 -13 12 0 51 40 113 115 27 33 63 75 80 93 17 19 31 38 31 43 0 5
6 9 13 9 16 0 66 47 78 73 5 12 14 29 20 38 10 13 8 20 -9 37 -12 12 -22 26
-22 30 0 17 37 42 54 36 10 -4 16 -1 16 8 0 8 9 23 20 33 21 19 20 27 -6 31
-50 8 -59 34 -20 60 30 19 25 37 -20 63 -40 24 -45 51 -10 51 27 0 41 14 30
31 -4 8 -9 8 -17 0 -17 -17 -30 -13 -24 9 3 11 1 23 -5 26 -5 3 -8 15 -5 25 6
22 -11 26 -19 4 -4 -8 -17 -15 -31 -15 -20 0 -24 4 -21 23 2 14 11 23 26 25
16 3 22 10 22 28 0 13 -6 24 -13 24 -13 0 -39 68 -28 74 13 8 42 -23 39 -41
-4 -24 35 -25 40 -1 5 24 -39 80 -56 73 -10 -4 -13 0 -9 15 4 16 0 20 -18 20
-13 0 -26 4 -29 9 -9 14 4 41 19 41 7 0 16 12 19 26 4 16 12 24 21 21 7 -3 37
6 67 20 29 13 62 28 73 33 56 21 118 56 122 67 8 22 25 14 18 -8 l-7 -20 39
21 c21 11 54 30 72 41 34 20 35 20 48 2 12 -15 15 -16 23 -3 5 8 10 18 10 22
0 14 71 31 83 19 7 -7 14 -6 21 5 7 8 18 16 26 18 8 2 28 8 43 14 16 7 34 12
41 12 6 0 16 4 21 8 6 5 43 21 82 36 40 15 75 32 79 37 3 5 14 9 25 9 10 0 35
9 55 19 20 11 42 17 49 15 8 -3 21 5 29 19 16 24 75 59 60 36 -8 -14 35 -2 56
16 8 7 29 16 47 20 17 3 37 13 44 21 6 8 22 14 34 14 12 0 35 10 50 22 15 12
44 23 63 25 20 2 41 8 48 14 22 18 153 59 170 52 10 -4 21 0 28 9 18 24 64 50
76 43 6 -4 18 1 25 11 8 11 15 14 15 9 0 -6 18 -10 40 -10 35 0 42 3 47 25 6
27 20 40 41 40 9 0 11 -7 7 -21 -7 -20 -5 -21 26 -15 19 3 39 13 45 21 6 8 16
15 22 15 5 0 12 7 16 15 3 9 18 15 38 15 29 -1 31 -2 14 -11 -14 -9 -15 -13
-5 -19 7 -5 20 -5 30 0 9 5 19 6 23 3 4 -4 9 2 12 13 5 17 13 20 65 19 37 0
63 -5 68 -13 12 -20 71 -4 71 19 0 12 7 19 20 19 14 0 20 -6 18 -17 -5 -29 72
-25 95 4 22 28 38 29 58 5 12 -14 29 -18 82 -17 54 1 67 -2 67 -15 0 -19 100
-24 115 -5 5 7 27 16 47 19 31 6 37 4 43 -14 8 -24 23 -25 54 -4 26 19 78 21
94 5 22 -22 39 -12 35 19 -3 17 -1 30 3 30 10 0 36 -26 42 -42 3 -10 14 -10
50 3 29 10 51 13 61 7 18 -10 76 10 76 25 0 5 17 7 38 5 31 -2 37 0 40 18 4
27 76 54 94 36 19 -19 52 -14 66 9 15 23 57 23 57 -1 0 -23 51 -24 84 -1 45
32 112 44 155 26 33 -14 35 -14 41 5 7 21 35 28 35 9 0 -8 5 -8 15 1 8 7 21
10 28 7 7 -3 21 1 31 9 14 10 24 10 39 3 10 -6 30 -9 43 -6z m-415 -36 c-1
-12 -15 -9 -19 4 -3 6 1 10 8 8 6 -3 11 -8 11 -12z m-1811 -166 c0 -12 -28
-22 -34 -12 -3 5 -3 11 1 15 9 9 33 7 33 -3z m-210 -75 c0 -2 -7 -7 -16 -10
-8 -3 -12 -2 -9 4 6 10 25 14 25 6z m-1602 -1453 c-13 -14 -24 -19 -26 -13 -5
15 28 51 40 44 5 -3 -1 -17 -14 -31z m-88 -104 c-8 -15 -15 -18 -22 -11 -8 8
-5 19 8 39 15 22 19 25 22 11 2 -9 -2 -27 -8 -39z m-244 -275 c-7 -18 -26 -18
-26 1 0 8 6 27 13 42 l12 28 3 -29 c2 -15 1 -34 -2 -42z m-376 -884 c0 -11 -4
-20 -9 -20 -14 0 -23 18 -16 30 10 17 25 11 25 -10z m13070 -645 c0 -30 -31
-10 -36 22 -2 9 3 10 17 3 10 -6 19 -17 19 -25z m-970 -1 c0 -8 -4 -12 -10 -9
-5 3 -10 10 -10 16 0 5 5 9 10 9 6 0 10 -7 10 -16z m840 -40 c0 -8 -4 -12 -10
-9 -5 3 -10 10 -10 16 0 5 5 9 10 9 6 0 10 -7 10 -16z m-19247 -25 c8 -31 -10
-31 -21 0 -8 24 -8 29 3 25 7 -3 15 -14 18 -25z m-103 -10 c0 -6 -4 -7 -10 -4
-5 3 -10 11 -10 16 0 6 5 7 10 4 6 -3 10 -11 10 -16z m392 -51 c-15 -15 -26
-4 -18 18 5 13 9 15 18 6 9 -9 9 -15 0 -24z m-417 -8 c3 -5 -1 -10 -9 -10 -9
0 -16 5 -16 10 0 6 4 10 9 10 6 0 13 -4 16 -10z m185 -14 c0 -3 -4 -8 -10 -11
-5 -3 -10 -1 -10 4 0 6 5 11 10 11 6 0 10 -2 10 -4z m430 -317 c0 -5 -4 -9
-10 -9 -5 0 -10 7 -10 16 0 8 5 12 10 9 6 -3 10 -10 10 -16z m1740 -289 c0 -5
-2 -10 -4 -10 -3 0 -8 5 -11 10 -3 6 -1 10 4 10 6 0 11 -4 11 -10z m-330 -190
c0 -5 -4 -10 -10 -10 -5 0 -10 5 -10 10 0 6 5 10 10 10 6 0 10 -4 10 -10z
m270 -50 c0 -21 -15 -27 -25 -10 -7 12 2 30 16 30 5 0 9 -9 9 -20z m-1280
-732 c0 -17 -3 -18 -15 -8 -8 7 -15 19 -15 26 0 8 6 11 15 8 8 -4 15 -15 15
-26z m155 -108 c-3 -5 -10 -10 -16 -10 -5 0 -9 5 -9 10 0 6 7 10 16 10 8 0 12
-4 9 -10z m515 -339 c0 -6 -4 -13 -10 -16 -5 -3 -10 1 -10 9 0 9 5 16 10 16 6
0 10 -4 10 -9z m5055 -51 c3 -5 1 -10 -4 -10 -6 0 -11 5 -11 10 0 6 2 10 4 10
3 0 8 -4 11 -10z m-4361 -466 c4 -10 1 -14 -6 -12 -15 5 -23 28 -10 28 5 0 13
-7 16 -16z m1350 -270 c7 -19 -2 -37 -15 -29 -12 8 -12 45 0 45 5 0 12 -7 15
-16z m81 -263 c3 -5 1 -12 -4 -15 -5 -3 -11 1 -15 9 -6 16 9 21 19 6z m10615
-29 c0 -11 -9 -27 -20 -37 -17 -16 -20 -16 -26 -2 -7 20 13 57 31 57 8 0 15
-8 15 -18z m-10630 -62 c0 -5 -4 -10 -10 -10 -5 0 -10 5 -10 10 0 6 5 10 10
10 6 0 10 -4 10 -10z m10296 -727 c-11 -11 -19 6 -11 24 8 17 8 17 12 0 3 -10
2 -21 -1 -24z m-6236 -393 c0 -5 -4 -10 -10 -10 -5 0 -10 5 -10 10 0 6 5 10
10 10 6 0 10 -4 10 -10z m9370 -179 c0 -6 -4 -13 -10 -16 -5 -3 -10 1 -10 9 0
9 5 16 10 16 6 0 10 -4 10 -9z m-3950 -51 c0 -5 -4 -10 -10 -10 -5 0 -10 5
-10 10 0 6 5 10 10 10 6 0 10 -4 10 -10z m5 -40 c-3 -5 -10 -10 -16 -10 -5 0
-9 5 -9 10 0 6 7 10 16 10 8 0 12 -4 9 -10z m-145 -100 c0 -5 -5 -10 -11 -10
-5 0 -7 5 -4 10 3 6 8 10 11 10 2 0 4 -4 4 -10z m-645 -300 c-3 -5 -13 -10
-21 -10 -8 0 -12 5 -9 10 3 6 13 10 21 10 8 0 12 -4 9 -10z m-2875 -135 c14
-7 48 -16 75 -20 28 -4 56 -11 62 -17 7 -6 42 -13 78 -16 47 -3 65 -9 65 -19
0 -8 -5 -11 -11 -8 -5 4 -34 11 -62 15 -29 5 -88 18 -132 30 -44 12 -95 24
-114 28 -19 4 -36 13 -39 20 -5 15 35 8 78 -13z m520 -105 c0 -5 -2 -10 -4
-10 -3 0 -8 5 -11 10 -3 6 -1 10 4 10 6 0 11 -4 11 -10z m910 -31 c0 -10 -7
-19 -15 -19 -9 0 -15 9 -15 25 0 18 4 23 15 19 8 -4 15 -15 15 -25z m386 -6
c-10 -10 -19 5 -10 18 6 11 8 11 12 0 2 -7 1 -15 -2 -18z m-801 -33 c3 -5 -1
-10 -9 -10 -9 0 -16 5 -16 10 0 6 4 10 9 10 6 0 13 -4 16 -10z m5867 -362 c-7
-7 -12 -8 -12 -2 0 14 12 26 19 19 2 -3 -1 -11 -7 -17z m-242 -273 c0 -8 -4
-15 -10 -15 -5 0 -10 7 -10 15 0 8 5 15 10 15 6 0 10 -7 10 -15z m-19 -58 c-8
-8 -11 -7 -11 4 0 20 13 34 18 19 3 -7 -1 -17 -7 -23z m-61 19 c0 -3 -4 -8
-10 -11 -5 -3 -10 -1 -10 4 0 6 5 11 10 11 6 0 10 -2 10 -4z m-168 -228 c-7
-7 -12 -8 -12 -2 0 14 12 26 19 19 2 -3 -1 -11 -7 -17z m-322 -318 c0 -5 -5
-10 -11 -10 -5 0 -7 5 -4 10 3 6 8 10 11 10 2 0 4 -4 4 -10z m-1030 -444 c0
-8 9 -18 20 -21 20 -6 25 -16 13 -28 -7 -7 -53 39 -53 54 0 5 5 9 10 9 6 0 10
-6 10 -14z m-6485 -596 c3 -5 -1 -10 -9 -10 -9 0 -16 5 -16 10 0 6 4 10 9 10
6 0 13 -4 16 -10z m445 -171 c0 -11 -27 -12 -34 0 -3 4 -3 11 0 14 8 8 34 -3
34 -14z m2930 -229 c0 -5 -5 -10 -11 -10 -5 0 -7 5 -4 10 3 6 8 10 11 10 2 0
4 -4 4 -10z"/>
<path d="M11019 14638 c-10 -18 -9 -20 6 -15 9 4 19 7 21 7 2 0 4 7 4 15 0 22
-18 18 -31 -7z"/>
<path d="M11140 14640 c-13 -9 -13 -10 0 -10 8 0 22 5 30 10 13 9 13 10 0 10
-8 0 -22 -5 -30 -10z"/>
<path d="M10913 12591 c-7 -26 -57 -29 -84 -6 -15 14 -18 14 -32 0 -18 -17
-43 -20 -52 -5 -4 6 -18 4 -38 -7 -18 -9 -51 -17 -74 -18 -31 -1 -50 -9 -76
-32 -47 -42 -77 -50 -93 -28 -7 9 -18 14 -24 10 -8 -5 -8 -11 1 -21 9 -11 8
-14 -5 -14 -9 0 -16 -4 -16 -10 0 -5 -9 -10 -20 -10 -10 0 -41 -7 -67 -16 -28
-10 -49 -12 -50 -7 -13 37 -27 42 -78 29 -27 -8 -72 -26 -99 -40 -46 -24 -51
-25 -73 -11 -22 15 -24 14 -33 -10 -11 -28 -25 -32 -38 -10 -7 13 -14 10 -42
-15 -22 -20 -43 -29 -61 -28 -28 2 -32 0 -110 -64 -25 -21 -56 -38 -70 -38
-13 0 -30 -9 -37 -20 -12 -19 -58 -53 -170 -125 -154 -98 -337 -268 -439 -405
-31 -41 -65 -84 -75 -95 -62 -67 -78 -86 -78 -96 0 -6 -18 -34 -40 -61 -22
-28 -40 -55 -40 -61 0 -5 -10 -24 -23 -41 -58 -76 -127 -243 -127 -307 0 -14
-7 -48 -16 -75 -43 -134 -85 -343 -78 -388 3 -21 2 -48 -4 -60 -38 -82 -35
-175 8 -302 11 -31 20 -77 20 -101 0 -24 7 -68 16 -96 8 -29 20 -70 26 -92 9
-35 43 -136 68 -200 4 -11 20 -56 36 -100 15 -44 38 -93 51 -108 12 -16 23
-32 23 -36 0 -12 99 -161 137 -206 18 -22 43 -51 54 -65 38 -46 121 -164 194
-275 85 -130 162 -205 300 -293 55 -35 136 -88 180 -118 73 -50 103 -67 203
-110 18 -8 48 -14 66 -14 19 0 51 -7 72 -16 24 -10 62 -16 98 -15 32 1 63 -3
70 -8 13 -11 118 -47 166 -57 19 -3 44 -13 55 -20 11 -8 33 -14 50 -14 17 0
54 -6 82 -13 42 -11 54 -11 69 0 25 18 34 16 34 -7 0 -17 7 -19 73 -18 39 0
90 -1 112 -3 26 -3 51 2 70 13 28 16 33 16 62 1 31 -14 35 -14 70 7 20 12 45
19 55 17 10 -3 21 -1 24 4 20 33 144 59 205 44 19 -5 31 -2 40 10 53 62 71 77
93 71 15 -4 30 2 49 19 16 16 38 25 57 25 22 0 41 9 62 30 35 36 54 38 78 8
15 -19 20 -20 33 -9 9 7 13 19 11 26 -7 18 36 61 46 46 5 -8 17 -2 39 18 18
17 38 31 45 31 15 0 116 94 116 108 0 5 9 12 20 15 11 3 20 1 20 -5 0 -5 16 6
36 26 20 20 42 36 50 36 8 0 17 7 20 15 4 8 14 15 25 15 10 0 34 17 54 37 29
30 38 34 45 23 7 -11 20 -4 62 35 29 26 63 60 76 73 12 14 22 20 22 14 0 -21
15 -13 75 41 32 28 74 66 92 82 20 18 35 41 37 58 3 26 29 56 50 57 8 0 74 65
169 168 26 28 56 57 67 65 20 14 67 111 95 197 9 30 23 69 31 85 20 45 35 174
22 198 -8 15 -5 26 12 49 22 30 23 52 5 114 -5 16 -1 23 14 27 28 7 27 44 -1
74 -17 18 -19 27 -11 45 12 25 12 24 29 -31 7 -23 33 6 45 51 8 32 7 44 -5 63
-10 15 -16 46 -16 80 0 30 -4 55 -10 55 -5 0 -10 9 -10 20 0 11 4 20 9 20 9 0
19 51 24 115 1 20 -2 29 -11 27 -19 -4 -26 26 -12 53 8 15 10 34 5 52 -4 15
-9 41 -12 58 -2 16 -8 34 -13 39 -6 6 -10 22 -10 37 0 15 -6 32 -14 38 -7 6
-16 33 -19 61 -7 58 -32 110 -52 110 -8 0 -15 5 -15 10 0 6 4 10 8 10 19 0 4
72 -20 98 -21 22 -24 32 -17 51 7 18 4 28 -13 47 -13 13 -28 24 -35 24 -6 0
-16 22 -22 48 -8 32 -19 51 -33 57 -27 12 -45 72 -29 97 16 25 14 28 -13 28
-24 0 -46 26 -88 106 -10 19 -31 43 -48 55 -18 14 -29 30 -28 44 2 24 -96 152
-124 161 -10 3 -25 17 -33 32 -29 53 -88 105 -156 136 -42 20 -132 77 -157 99
-10 9 -25 17 -32 17 -13 0 -268 124 -360 175 -25 14 -52 25 -62 25 -10 0 -22
9 -28 19 -5 11 -24 22 -42 26 -18 4 -52 18 -74 31 -23 13 -44 21 -47 18 -3 -3
-22 2 -42 12 -30 14 -41 15 -54 6 -33 -24 -42 -24 -68 2 -26 26 -39 29 -143
30 -47 1 -56 4 -66 25 l-12 24 -26 -28 c-21 -23 -28 -25 -41 -15 -15 12 -78
18 -104 10 -10 -4 -15 3 -15 19 -1 31 -26 40 -33 12z m2092 -2753 c-9 -27 -22
-44 -30 -36 -8 7 16 58 27 58 5 0 6 -10 3 -22z m-25 -139 c-7 -11 -14 -18 -17
-15 -8 8 5 36 17 36 7 0 7 -6 0 -21z m-2137 -362 c24 -44 20 -140 -5 -145 -25
-5 -100 67 -96 92 3 21 9 23 38 12 11 -5 15 1 16 19 2 32 11 55 21 55 5 0 16
-15 26 -33z m1666 -278 c-30 -26 -57 -48 -61 -49 -18 -1 -6 31 18 47 14 10 40
30 57 45 55 46 42 7 -14 -43z m-1198 -702 c-1 -4 -1 -14 -1 -22 0 -8 -7 -15
-16 -15 -11 0 -14 5 -10 16 3 9 6 20 6 26 0 5 5 8 11 6 6 -2 10 -7 10 -11z"/>
<path d="M6813 12349 c-6 -13 -15 -35 -18 -49 l-7 -25 22 21 c14 14 21 30 18
49 l-3 29 -12 -25z"/>
<path d="M9620 5945 c7 -9 15 -13 17 -11 7 7 -7 26 -19 26 -6 0 -6 -6 2 -15z"/>
<path d="M10316 19881 c-4 -7 -5 -15 -2 -18 9 -9 19 4 14 18 -4 11 -6 11 -12
0z"/>
<path d="M11694 19855 c-4 -9 -3 -19 1 -23 4 -4 10 -2 12 4 2 7 13 9 25 6 15
-3 19 -1 16 9 -7 20 -47 24 -54 4z"/>
<path d="M9715 19839 c-9 -14 -2 -20 14 -10 8 6 9 11 3 15 -6 3 -14 1 -17 -5z"/>
<path d="M11370 19820 c0 -5 5 -10 10 -10 6 0 10 5 10 10 0 6 -4 10 -10 10 -5
0 -10 -4 -10 -10z"/>
<path d="M11330 19809 c0 -5 5 -7 10 -4 6 3 10 8 10 11 0 2 -4 4 -10 4 -5 0
-10 -5 -10 -11z"/>
<path d="M11967 19803 c-12 -12 -7 -22 8 -17 8 4 15 10 15 15 0 11 -14 12 -23
2z"/>
<path d="M9131 19694 c0 -11 3 -14 6 -6 3 7 2 16 -1 19 -3 4 -6 -2 -5 -13z"/>
<path d="M8857 19654 c-4 -4 -7 -17 -7 -28 1 -19 1 -20 11 -3 11 19 8 43 -4
31z"/>
<path d="M8385 19510 c-3 -5 -2 -10 4 -10 5 0 13 5 16 10 3 6 2 10 -4 10 -5 0
-13 -4 -16 -10z"/>
<path d="M13370 19335 c0 -8 5 -15 10 -15 6 0 10 7 10 15 0 8 -4 15 -10 15 -5
0 -10 -7 -10 -15z"/>
<path d="M13395 19280 c-3 -5 1 -10 9 -10 9 0 16 5 16 10 0 6 -4 10 -9 10 -6
0 -13 -4 -16 -10z"/>
<path d="M2706 17418 c-11 -42 -7 -55 9 -34 16 22 20 56 6 56 -5 0 -11 -10
-15 -22z"/>
<path d="M6317 17293 c-4 -3 -7 -13 -7 -21 0 -12 3 -12 15 -2 8 7 15 16 15 21
0 11 -14 12 -23 2z"/>
<path d="M5750 16870 c0 -5 5 -10 10 -10 6 0 10 5 10 10 0 6 -4 10 -10 10 -5
0 -10 -4 -10 -10z"/>
<path d="M4425 15510 c-3 -5 1 -10 9 -10 9 0 16 5 16 10 0 6 -4 10 -9 10 -6 0
-13 -4 -16 -10z"/>
<path d="M0 13145 c0 -949 2 -1725 5 -1725 12 0 57 199 125 560 12 63 28 142
35 175 8 33 17 82 21 110 4 27 16 65 26 84 12 20 18 45 15 60 -13 64 54 289
100 338 39 40 40 46 13 71 -19 18 -19 52 0 52 4 0 16 15 27 33 15 26 17 40 9
79 -7 38 -6 49 7 63 10 9 17 26 17 37 0 12 3 18 7 15 3 -4 17 10 31 30 20 29
23 40 13 54 -17 29 -13 60 9 66 17 5 20 14 20 59 0 29 5 56 11 60 6 3 9 20 7
36 -3 21 0 32 14 39 29 15 49 66 52 131 2 33 8 63 15 67 20 13 49 76 56 125 5
30 14 50 26 57 30 16 51 67 51 125 0 38 6 62 19 78 20 25 17 46 -10 78 -9 11
-14 32 -13 52 2 19 -1 37 -7 41 -18 10 -13 76 6 91 17 13 17 15 1 27 -10 8
-15 17 -11 20 3 4 12 2 19 -4 10 -8 12 -2 8 28 -3 21 -11 41 -19 46 -17 9 -20
43 -6 51 10 7 3 44 -12 63 -5 7 -13 11 -17 8 -5 -3 -12 0 -16 6 -4 6 1 16 10
21 23 13 20 45 -8 63 -13 9 -54 18 -92 22 -48 4 -78 13 -99 28 -16 13 -48 28
-70 35 -22 7 -49 17 -60 23 -82 42 -116 57 -134 57 -11 0 -25 9 -31 19 -5 11
-24 22 -42 26 -18 4 -47 16 -64 26 -17 10 -39 19 -48 19 -15 0 -16 -136 -16
-1725z m600 1439 c0 -8 -4 -12 -10 -9 -5 3 -10 10 -10 16 0 5 5 9 10 9 6 0 10
-7 10 -16z m90 -284 c0 -5 -7 -10 -15 -10 -8 0 -15 5 -15 10 0 6 7 10 15 10 8
0 15 -4 15 -10z m-300 -1187 c-11 -17 -11 -17 -6 0 3 10 6 24 7 30 0 9 2 9 5
0 3 -7 0 -20 -6 -30z m-20 -163 c0 -5 -4 -10 -10 -10 -5 0 -10 5 -10 10 0 6 5
10 10 10 6 0 10 -4 10 -10z"/>
<path d="M20425 11843 c-87 -44 -113 -80 -94 -130 8 -21 7 -28 -6 -35 -17 -10
-21 -83 -5 -93 7 -4 7 -12 0 -25 -9 -16 -6 -18 30 -13 49 7 51 -3 5 -23 -41
-17 -45 -40 -14 -90 13 -22 21 -51 21 -82 0 -36 11 -70 49 -149 28 -57 54
-103 60 -103 5 0 9 149 9 385 0 212 -1 385 -2 385 -2 -1 -25 -12 -53 -27z"/>
<path d="M19773 10668 c-18 -22 -22 -68 -7 -68 8 0 15 6 15 13 1 6 3 24 5 40
3 30 1 33 -13 15z"/>
<path d="M1915 10480 c3 -5 8 -10 11 -10 2 0 4 5 4 10 0 6 -5 10 -11 10 -5 0
-7 -4 -4 -10z"/>
<path d="M20436 10238 l-23 -53 24 -28 c26 -32 21 -51 -18 -71 -20 -10 -23
-18 -21 -51 2 -22 8 -41 13 -43 5 -2 9 -9 9 -16 0 -8 -10 -11 -30 -8 -39 6
-48 -18 -55 -146 -3 -53 -7 -113 -11 -132 -3 -19 -5 -59 -5 -89 0 -47 3 -57
30 -81 25 -24 32 -26 42 -14 6 8 18 14 25 14 22 0 16 -27 -8 -45 -19 -12 -21
-18 -11 -33 7 -12 8 -24 1 -36 -5 -9 -7 -29 -3 -44 3 -16 -1 -43 -8 -62 -16
-37 -7 -85 21 -107 17 -14 9 -43 -13 -43 -11 0 -15 -12 -15 -50 0 -45 3 -52
25 -60 22 -8 24 -15 23 -56 -2 -37 2 -50 19 -63 11 -10 23 -26 26 -37 2 -10 5
302 6 694 1 478 -2 712 -9 712 -6 0 -21 -24 -34 -52z m26 -870 c-7 -7 -12 -8
-12 -2 0 14 12 26 19 19 2 -3 -1 -11 -7 -17z"/>
<path d="M19484 9958 c-1 -18 -5 -45 -9 -60 -11 -40 20 -37 45 5 25 40 25 56
3 73 -28 21 -38 16 -39 -18z"/>
<path d="M1530 9054 c0 -8 5 -12 10 -9 6 3 10 10 10 16 0 5 -4 9 -10 9 -5 0
-10 -7 -10 -16z"/>
<path d="M1557 9043 c-14 -13 -7 -33 11 -33 26 0 34 11 21 27 -13 14 -22 16
-32 6z"/>
<path d="M1516 9015 c-9 -26 -7 -32 5 -12 6 10 9 21 6 23 -2 3 -7 -2 -11 -11z"/>
<path d="M19434 8656 c-3 -7 -16 -13 -30 -13 -14 0 -33 -8 -43 -17 -20 -18
-111 -22 -127 -6 -17 17 -129 -82 -159 -139 -9 -18 -29 -38 -44 -44 -15 -5
-39 -26 -52 -46 -13 -20 -35 -45 -48 -55 -13 -11 -30 -35 -38 -54 -12 -29 -12
-37 0 -51 17 -21 14 -58 -6 -74 -21 -16 -69 -154 -69 -196 1 -19 -14 -96 -33
-170 -18 -75 -37 -155 -40 -178 -4 -24 -18 -59 -31 -78 -13 -20 -24 -38 -24
-41 0 -2 -10 -21 -23 -42 -23 -37 -57 -135 -57 -164 0 -8 -9 -27 -20 -41 -11
-14 -20 -36 -20 -50 0 -13 -9 -32 -21 -43 -12 -10 -30 -37 -41 -59 -11 -22
-26 -47 -33 -55 -8 -8 -20 -33 -28 -56 -7 -23 -31 -72 -53 -109 -52 -89 -134
-248 -134 -259 0 -4 -11 -21 -25 -38 -14 -17 -25 -42 -25 -59 0 -16 -11 -50
-24 -76 -13 -27 -34 -68 -45 -93 -27 -56 -56 -105 -102 -173 -20 -28 -48 -72
-63 -97 -40 -68 -49 -82 -69 -104 -10 -12 -30 -41 -45 -66 -14 -25 -33 -54
-41 -65 -9 -11 -25 -36 -35 -55 -10 -19 -29 -46 -41 -60 -32 -36 -109 -149
-141 -206 -14 -27 -34 -56 -44 -64 -10 -8 -33 -40 -53 -71 -19 -31 -63 -88
-97 -125 -35 -38 -68 -80 -73 -94 -18 -42 -53 -82 -145 -170 -38 -36 -60 -64
-56 -71 9 -15 -36 -98 -57 -104 -24 -8 -52 -42 -64 -78 -6 -18 -22 -38 -40
-47 -34 -17 -52 -36 -65 -68 -5 -12 -20 -26 -33 -31 -12 -5 -31 -21 -42 -37
-11 -15 -37 -44 -58 -63 -21 -19 -48 -52 -59 -73 -12 -21 -25 -38 -30 -38 -4
0 -16 -8 -27 -19 -10 -10 -22 -20 -27 -22 -5 -2 -23 -25 -41 -50 -18 -25 -47
-64 -65 -85 -47 -55 -229 -243 -258 -268 -14 -12 -45 -41 -70 -66 -62 -63
-206 -181 -275 -226 -22 -15 -58 -43 -80 -64 -22 -20 -56 -46 -75 -58 -20 -11
-46 -32 -59 -46 -14 -14 -30 -26 -36 -26 -6 0 -38 -25 -70 -55 -33 -31 -81
-67 -107 -80 -26 -14 -55 -37 -64 -50 -9 -14 -38 -38 -63 -52 -25 -15 -56 -39
-69 -55 -13 -15 -28 -28 -34 -28 -6 0 -31 -17 -57 -38 -68 -56 -111 -85 -118
-78 -3 3 0 12 6 20 7 8 10 20 6 26 -9 14 -24 3 -23 -18 1 -35 -22 -72 -64 -99
-24 -15 -49 -36 -56 -45 -19 -25 -39 -22 -46 7 -4 14 -10 25 -15 25 -15 0 -32
-27 -35 -57 -2 -15 -4 -32 -5 -37 0 -5 -4 -7 -7 -3 -4 3 -26 -9 -49 -28 -23
-19 -49 -35 -57 -35 -19 0 -107 -44 -133 -67 -12 -10 -24 -26 -28 -35 -7 -19
-37 -25 -37 -8 0 20 -37 9 -65 -20 -16 -16 -36 -30 -45 -30 -9 0 -26 -13 -38
-30 -16 -21 -34 -32 -62 -36 -32 -5 -40 -11 -40 -27 0 -16 -3 -18 -11 -10 -9
9 -20 6 -44 -13 -17 -13 -39 -24 -48 -24 -10 0 -17 -7 -17 -15 0 -8 -9 -15
-19 -15 -11 0 -34 -12 -51 -27 -18 -15 -48 -28 -69 -30 -28 -3 -45 -14 -77
-50 -40 -45 -41 -45 -56 -24 l-15 21 -23 -25 c-18 -19 -26 -22 -37 -14 -12 10
-17 6 -14 -13 1 -11 -43 -38 -87 -53 -26 -10 -36 -19 -34 -31 3 -12 -1 -15
-12 -10 -9 3 -22 8 -28 11 -8 3 -23 -12 -36 -35 -23 -41 -48 -52 -58 -25 -10
26 -33 16 -52 -22 -12 -26 -23 -37 -35 -35 -9 2 -20 -4 -23 -12 -4 -10 -17
-13 -45 -11 -28 3 -42 -1 -46 -11 -3 -8 -12 -14 -20 -14 -8 0 -29 -16 -47 -36
-24 -27 -40 -35 -54 -32 -33 9 -107 -9 -134 -33 -13 -12 -37 -23 -53 -25 -15
-2 -37 -12 -49 -23 -12 -12 -28 -21 -35 -21 -18 0 -91 -39 -91 -49 0 -4 -24
-21 -52 -36 -29 -16 -66 -38 -83 -50 -16 -12 -38 -25 -48 -28 -10 -4 -51 -27
-92 -52 -41 -25 -79 -45 -84 -45 -5 0 -11 -5 -13 -12 -7 -19 -38 -1 -38 22 0
33 -28 23 -41 -15 -12 -32 -16 -34 -63 -39 -28 -2 -64 -5 -80 -5 -16 -1 -40
-8 -53 -17 -18 -11 -28 -12 -37 -4 -10 8 -23 6 -47 -6 -19 -10 -42 -21 -52
-26 -11 -6 -23 -5 -30 0 -19 15 -75 12 -81 -4 -7 -19 -35 -18 -42 1 -9 21 -21
19 -49 -10 l-25 -24 0 25 c0 18 -4 23 -12 17 -7 -4 -21 -6 -30 -5 -10 2 -18
-2 -18 -8 0 -11 -58 -11 -75 0 -25 17 -108 -7 -118 -34 -7 -17 -57 -22 -57 -6
0 6 5 10 10 10 6 0 10 7 10 15 0 8 5 15 12 15 6 0 9 3 6 6 -4 3 -17 -2 -31
-10 -13 -9 -31 -14 -40 -11 -8 4 -18 1 -22 -5 -4 -6 -13 -2 -24 12 -18 21 -19
21 -55 4 -33 -16 -39 -16 -54 -3 -22 20 -55 25 -73 12 -13 -10 -46 -22 -106
-40 -17 -5 -23 -2 -23 9 0 19 -50 16 -75 -4 -12 -10 -19 -10 -27 -2 -17 17
-28 15 -22 -3 7 -17 -11 -21 -21 -5 -12 19 -35 11 -32 -12 1 -17 -4 -24 -21
-26 -21 -3 -22 -2 -11 16 10 16 10 23 0 36 -10 11 -17 13 -26 6 -6 -5 -15 -7
-18 -4 -3 4 -13 -1 -22 -10 -17 -16 -40 -13 -30 5 4 5 -5 9 -19 9 -14 0 -26
-4 -26 -9 0 -5 -10 -7 -22 -3 -14 3 -19 2 -14 -6 4 -7 1 -12 -8 -12 -8 0 -20
9 -26 20 -12 23 -50 27 -50 5 0 -8 3 -15 8 -15 9 0 35 -41 29 -47 -3 -2 -16 7
-30 21 -21 21 -32 25 -59 19 -18 -3 -37 -9 -43 -13 -5 -4 -24 -9 -42 -12 -25
-3 -34 0 -41 16 -9 20 -10 20 -21 -6 -6 -16 -17 -28 -25 -28 -8 0 -16 -5 -18
-11 -3 -9 -10 -9 -26 0 -12 6 -22 8 -22 3 0 -14 -53 -2 -67 15 -10 13 -15 13
-44 -1 -32 -16 -71 -13 -96 7 -9 6 -13 6 -13 -2 0 -8 -5 -8 -19 1 -15 9 -23 9
-35 -1 -12 -10 -17 -9 -28 8 -18 29 -30 26 -22 -5 6 -23 4 -25 -17 -22 -13 1
-28 13 -34 25 -6 15 -16 21 -30 18 -11 -2 -32 -4 -47 -4 -18 -1 -28 -6 -28
-16 0 -19 -27 -19 -64 0 -16 9 -51 17 -77 18 -26 2 -54 9 -62 16 -12 9 -21 10
-37 1 -25 -13 -39 -5 -22 12 17 17 15 28 -4 28 -9 0 -18 -9 -21 -20 -6 -24
-10 -25 -30 -4 -9 8 -22 13 -29 10 -8 -3 -21 5 -29 18 -22 34 -59 24 -51 -13
6 -23 5 -24 -7 -8 -8 9 -19 17 -25 17 -6 0 -14 9 -17 21 -4 13 -12 18 -22 15
-8 -3 -24 -6 -34 -6 -11 0 -17 -4 -14 -10 3 -5 3 -10 -1 -10 -9 0 -44 41 -44
52 0 4 -7 8 -16 8 -11 0 -15 -6 -11 -20 6 -25 -24 -28 -47 -5 -11 12 -25 14
-51 9 -25 -4 -42 -1 -60 10 -18 12 -30 14 -43 7 -11 -6 -24 -6 -33 0 -7 5 -28
6 -44 3 -22 -4 -38 1 -57 16 -21 16 -32 19 -46 11 -13 -7 -31 -7 -56 0 -20 5
-40 8 -44 5 -5 -3 -23 4 -40 14 -22 13 -41 18 -62 14 -24 -5 -30 -3 -30 10 0
14 -7 16 -42 12 -31 -4 -47 -1 -60 11 -19 17 -116 36 -176 34 -18 -1 -42 4
-52 9 -11 6 -63 22 -117 36 -150 39 -304 90 -468 155 -83 32 -154 59 -158 59
-30 0 -386 155 -527 230 -19 10 -71 31 -115 46 -44 15 -84 30 -90 34 -5 4 -25
11 -43 15 -18 4 -45 13 -60 21 -15 8 -33 14 -39 14 -7 0 -34 21 -60 46 -27 25
-77 66 -113 90 -36 24 -105 72 -155 108 -49 36 -117 78 -150 95 -38 19 -76 48
-103 80 -24 28 -49 51 -56 51 -8 0 -36 19 -62 43 -53 45 -94 74 -136 96 -35
18 -115 84 -140 116 -11 14 -27 25 -37 25 -9 0 -33 18 -54 40 -34 38 -67 52
-67 30 0 -5 -7 -10 -16 -10 -8 0 -24 20 -35 45 -14 33 -31 51 -55 62 -19 9
-34 20 -34 25 0 4 -18 17 -41 28 -26 14 -44 31 -51 51 -8 24 -14 28 -33 23
-20 -5 -27 1 -45 36 -11 22 -28 44 -38 47 -21 9 -62 52 -62 67 0 14 -84 96
-99 96 -15 0 -77 67 -103 112 -14 25 -29 38 -43 38 -21 0 -69 60 -105 130 -10
21 -27 33 -52 40 -29 8 -38 16 -38 33 0 32 -27 70 -117 164 -29 31 -53 61 -53
69 0 8 -17 25 -37 38 -50 31 -97 82 -89 95 8 12 -23 51 -40 51 -6 0 -22 11
-35 24 -68 67 -158 169 -191 215 -31 43 -36 57 -31 87 5 33 4 36 -18 32 -20
-2 -28 5 -51 52 -15 30 -28 68 -28 84 0 21 -4 27 -15 22 -8 -3 -15 -1 -15 3 0
5 6 11 13 14 8 3 6 11 -9 28 -12 13 -29 39 -38 57 -10 18 -24 36 -32 39 -7 3
-14 13 -14 23 0 10 -10 25 -22 34 -22 15 -22 16 -4 27 17 10 15 14 -24 54 -23
24 -42 46 -41 49 3 19 -1 25 -14 20 -9 -4 -15 0 -15 10 0 10 6 13 15 10 22 -9
19 24 -5 64 -11 17 -27 32 -36 32 -12 0 -15 6 -10 24 3 13 -1 37 -9 52 -8 16
-15 34 -15 41 0 23 -51 108 -81 135 -16 15 -29 34 -29 43 0 9 -9 33 -19 53
-38 73 -101 213 -101 223 0 6 -9 22 -20 36 -11 14 -20 32 -20 39 0 17 -44 99
-64 120 -9 8 -16 21 -16 29 0 17 -49 123 -60 130 -4 3 -11 36 -15 74 -4 43
-12 72 -20 75 -8 3 -17 25 -20 50 -4 24 -13 47 -21 50 -8 3 -14 15 -14 27 0
11 -11 43 -25 71 -14 27 -25 60 -25 72 0 13 -9 33 -20 46 -11 13 -20 31 -20
40 0 9 -9 25 -20 35 -11 10 -23 34 -26 54 -4 20 -11 41 -16 48 -5 6 -10 32
-11 56 -1 34 -7 46 -22 53 -11 5 -21 18 -23 29 -2 11 -12 29 -22 40 -10 11
-31 45 -46 75 -16 30 -34 61 -41 68 -7 7 -13 19 -13 25 -1 7 -9 30 -20 52 -11
22 -19 44 -20 49 0 5 -6 17 -13 25 -8 9 -19 41 -26 71 -33 153 -142 342 -240
419 -87 68 -170 92 -193 57 -5 -7 -8 -5 -8 5 0 22 -29 33 -46 18 -7 -6 -22 -8
-33 -4 -13 4 -27 -1 -41 -15 -27 -27 -67 -42 -91 -35 -14 5 -17 2 -13 -9 8
-22 -13 -20 -25 2 -12 21 -28 8 -33 -28 -2 -21 -8 -25 -37 -26 -38 0 -53 -22
-44 -61 6 -27 -32 -73 -59 -73 -13 0 -18 -8 -18 -30 0 -16 -4 -30 -10 -30 -5
0 -10 -7 -10 -15 0 -9 -9 -15 -23 -15 -22 0 -24 -4 -23 -50 1 -42 4 -50 23
-55 33 -8 28 -32 -7 -40 -45 -10 -42 -50 5 -72 25 -12 35 -23 35 -40 0 -13 -5
-23 -11 -23 -6 0 -8 -8 -5 -18 3 -9 2 -31 -3 -48 -13 -44 -3 -84 20 -84 15 0
19 -7 19 -40 0 -22 5 -40 10 -40 6 0 10 -13 10 -30 0 -18 9 -39 23 -52 36 -37
67 -87 57 -93 -18 -11 -10 -35 14 -45 26 -10 67 -58 74 -88 13 -55 12 -96 -2
-138 -15 -46 -9 -84 14 -84 6 0 10 -9 10 -20 0 -12 7 -20 16 -20 8 0 23 -7 32
-16 13 -14 14 -21 3 -48 -25 -60 -25 -76 -2 -76 11 0 24 0 27 1 23 3 32 -79
14 -125 -9 -24 -8 -26 13 -21 18 5 23 2 24 -16 1 -12 -5 -28 -13 -36 -18 -18
-18 -47 -1 -62 8 -6 20 -30 27 -53 7 -24 17 -47 22 -52 4 -6 8 -18 8 -27 0
-10 11 -31 25 -47 14 -17 25 -35 25 -41 0 -7 7 -14 15 -17 8 -4 15 -17 15 -30
0 -13 9 -32 20 -41 11 -10 20 -29 20 -43 0 -14 25 -59 60 -108 92 -127 171
-270 263 -473 47 -103 111 -229 143 -280 31 -52 80 -139 109 -194 166 -320
254 -474 304 -535 20 -25 59 -82 85 -127 27 -46 55 -88 62 -94 8 -6 14 -17 14
-24 0 -7 9 -24 20 -38 11 -14 20 -31 20 -39 0 -31 132 -200 158 -202 28 -2 92
-27 92 -36 0 -9 -39 -23 -58 -21 -6 1 -12 0 -12 -2 0 -16 58 -102 101 -150 56
-62 86 -102 120 -160 13 -20 26 -37 31 -37 4 0 29 -32 54 -71 26 -39 74 -101
108 -138 150 -166 198 -222 264 -311 39 -52 82 -109 96 -126 14 -18 26 -36 26
-41 0 -12 49 -57 77 -72 33 -17 43 -14 43 14 0 14 6 25 13 25 24 0 56 -44 55
-75 -1 -36 17 -75 36 -75 7 0 23 -11 36 -25 13 -14 29 -25 35 -25 7 0 22 -15
35 -32 12 -18 42 -48 67 -67 24 -19 81 -70 125 -113 45 -43 89 -78 99 -78 10
0 50 -32 88 -70 39 -39 76 -70 84 -70 7 0 28 -13 47 -30 19 -16 43 -29 53 -30
9 0 25 -7 35 -15 9 -9 37 -34 62 -55 24 -22 52 -40 61 -40 9 0 34 -23 55 -52
21 -28 48 -56 59 -62 11 -6 24 -17 28 -23 4 -7 14 -13 21 -13 8 0 16 -7 20
-15 3 -8 14 -15 25 -15 12 0 18 -6 17 -18 -1 -14 6 -16 40 -14 33 3 46 -1 63
-19 12 -13 32 -24 44 -24 15 0 22 -6 21 -18 -1 -12 6 -17 26 -17 15 0 44 -11
65 -25 24 -17 44 -23 57 -19 16 5 19 2 16 -13 -4 -19 53 -54 119 -72 29 -8 33
-7 33 10 0 12 -7 19 -19 19 -20 0 -75 39 -67 47 3 3 14 -2 26 -10 12 -8 30
-13 41 -10 27 8 46 -12 47 -49 1 -32 27 -63 43 -52 5 3 19 -2 31 -10 12 -9 30
-16 40 -16 16 0 16 3 6 20 -7 11 -16 20 -20 20 -11 0 -62 50 -56 55 3 3 16 -4
31 -15 14 -11 30 -20 36 -20 6 0 11 -4 11 -10 0 -5 10 -10 23 -10 23 -1 77
-42 77 -60 0 -16 -11 -12 -37 12 -13 12 -26 19 -29 16 -10 -11 16 -48 35 -48
10 0 30 -9 44 -20 14 -11 30 -20 35 -20 5 0 45 -17 88 -39 44 -21 97 -42 119
-46 42 -7 65 -21 65 -37 0 -6 -7 -8 -15 -4 -27 10 -16 -9 16 -28 33 -20 62
-15 53 8 -5 12 -1 14 23 7 46 -14 101 -40 108 -50 4 -7 15 -7 30 -1 21 8 27 6
41 -15 9 -14 24 -25 34 -25 10 0 23 -7 31 -16 8 -9 21 -13 35 -10 26 7 50 -24
45 -57 -3 -19 10 -22 26 -6 13 13 71 -9 93 -36 17 -21 29 -19 39 8 l9 22 12
-27 c7 -15 27 -33 44 -39 17 -7 35 -15 40 -17 5 -3 6 3 3 12 -10 25 2 19 36
-19 21 -24 36 -33 49 -29 11 3 18 0 18 -8 0 -10 2 -10 9 1 5 7 14 10 21 6 9
-6 9 -9 -1 -16 -10 -6 -5 -10 18 -15 18 -3 38 -13 44 -20 17 -21 36 -17 43 8
5 20 8 21 16 7 6 -11 18 -15 35 -11 23 4 31 -6 27 -39 -2 -10 138 -51 153 -45
8 3 11 13 8 25 -5 21 11 29 22 11 3 -5 17 -10 31 -10 13 0 24 -4 24 -10 0 -5
10 -10 23 -10 12 0 42 -7 67 -16 26 -9 58 -13 77 -9 29 5 33 3 39 -19 3 -14 3
-30 -1 -35 -3 -6 -2 -11 4 -11 5 0 18 -3 28 -6 17 -5 17 -5 0 9 -18 15 -18 16
1 26 16 8 21 7 26 -5 5 -12 10 -13 19 -6 10 8 21 5 42 -13 19 -16 25 -24 15
-25 -13 0 -13 -1 0 -10 24 -16 31 -12 24 14 -3 13 -1 27 5 30 12 8 41 -32 41
-56 0 -18 33 -33 50 -23 6 4 17 2 24 -4 12 -10 127 -41 154 -41 6 0 12 9 12
21 0 20 21 49 36 49 5 0 3 -5 -4 -12 -7 -7 -12 -24 -12 -39 0 -26 4 -28 83
-44 129 -26 147 -28 147 -17 0 7 11 6 33 -2 70 -29 80 -30 72 -7 -3 12 -2 21
4 21 5 0 12 -8 16 -19 3 -11 18 -21 38 -24 17 -3 41 -9 51 -13 16 -6 18 -4 13
9 -3 9 -2 17 4 17 5 0 12 -7 15 -15 4 -8 10 -12 15 -9 5 2 28 -2 51 -9 24 -8
65 -18 92 -21 27 -4 53 -9 58 -12 4 -3 74 -11 155 -19 82 -8 166 -18 188 -22
22 -4 83 -6 135 -5 239 3 421 9 426 15 4 3 14 2 24 -3 21 -11 6 -11 358 -14
155 -1 282 2 282 6 0 10 133 3 149 -7 6 -3 11 -1 11 4 0 6 9 11 21 11 11 0 18
-4 14 -9 -9 -15 80 -25 104 -12 16 9 21 9 21 0 0 -9 44 -10 173 -5 94 3 280 8
412 11 132 2 328 7 435 10 498 15 642 16 656 4 7 -6 18 -8 24 -4 5 3 23 -2 39
-11 24 -14 33 -15 44 -5 11 9 17 9 22 1 5 -8 11 -6 18 5 11 14 56 20 97 13 8
-1 36 1 62 6 30 5 59 4 82 -4 29 -9 39 -8 59 5 17 11 31 13 48 7 14 -5 37 -5
56 0 18 5 37 6 42 3 5 -3 13 0 16 6 4 5 14 8 22 5 8 -3 25 1 38 10 13 8 34 14
47 12 36 -4 101 13 127 33 25 20 81 26 81 9 0 -5 16 -12 35 -16 27 -5 41 -2
54 10 11 10 25 16 33 15 7 -1 21 1 31 6 10 4 23 2 31 -4 21 -18 67 -2 97 32
31 37 68 43 90 15 13 -16 22 -19 48 -13 18 4 35 13 38 21 6 17 27 18 53 2 16
-11 22 -9 34 7 14 19 15 19 22 2 5 -15 13 -17 47 -12 22 4 55 14 73 21 21 9
34 10 34 4 0 -5 7 -10 15 -10 8 0 15 5 15 11 0 6 9 8 21 4 13 -4 25 -2 29 5 6
9 12 9 28 -1 18 -11 26 -9 59 14 46 32 58 33 72 9 10 -16 12 -16 24 -1 9 12
25 16 61 13 41 -3 49 -1 53 16 4 13 17 22 42 26 20 4 43 12 51 19 9 9 34 12
66 10 43 -4 53 -1 57 13 3 14 14 18 48 17 28 -1 59 7 87 22 33 18 48 21 62 13
15 -8 21 -6 30 11 7 11 14 18 17 15 4 -3 14 1 24 10 9 8 28 16 42 18 14 1 32
7 39 13 7 6 51 31 98 55 111 58 160 86 189 109 13 11 28 19 33 19 5 0 32 18
60 41 28 22 66 46 85 54 32 14 37 22 34 58 -2 18 25 24 31 7 2 -6 18 3 37 19
18 16 43 31 55 33 17 2 21 9 19 35 -3 33 3 38 58 48 24 5 38 21 39 45 1 18 27
54 40 56 6 1 14 2 19 3 5 0 11 10 14 21 5 20 37 29 37 10 0 -5 7 -10 15 -10 8
0 15 9 15 20 0 12 12 28 29 38 15 9 30 21 32 27 2 5 9 9 14 8 6 -2 11 14 13
34 2 38 25 83 41 83 11 0 -6 -69 -21 -87 -6 -7 -7 -13 -2 -13 12 0 104 102
105 117 3 29 4 32 17 45 6 6 12 22 12 34 0 12 9 32 19 45 20 24 20 24 35 4 15
-19 17 -18 63 32 125 137 223 279 223 324 0 15 7 32 15 39 8 7 15 19 15 27 0
8 4 12 9 9 5 -3 11 1 15 9 3 8 2 15 -3 15 -5 0 -11 10 -14 22 -5 17 3 31 33
61 42 41 50 64 25 73 -19 8 -19 24 1 73 11 29 50 70 147 154 124 108 408 388
512 504 26 29 84 98 130 155 46 57 98 119 114 139 17 20 31 41 31 46 0 5 20
31 45 58 25 28 52 66 62 85 9 19 29 49 44 65 15 17 62 77 104 135 42 58 89
119 106 137 28 30 57 74 149 225 50 83 68 102 84 89 6 -5 16 -7 22 -3 16 10
64 111 64 133 0 11 5 25 10 32 6 7 31 44 57 82 68 103 135 185 151 185 5 0 19
12 33 26 22 23 23 26 6 35 -21 12 -22 52 -2 69 8 7 15 16 15 21 0 5 18 32 40
61 22 29 40 60 40 68 0 8 11 36 25 62 14 26 25 58 25 71 0 14 7 30 15 37 12
10 112 204 149 290 4 8 18 33 31 55 110 182 231 449 295 650 17 55 45 143 61
195 17 52 71 178 121 280 158 324 223 507 258 726 6 37 17 78 24 93 8 14 16
44 20 66 23 161 48 304 56 325 27 71 18 341 -12 378 -7 8 -11 45 -9 92 1 61
-2 85 -15 106 -12 17 -17 42 -15 68 2 36 -3 47 -33 80 -20 20 -36 43 -36 51 0
7 -11 20 -25 29 -13 9 -32 30 -40 46 -9 18 -26 32 -43 35 -15 4 -35 10 -44 16
-10 5 -29 9 -43 9 -14 0 -33 9 -42 20 -22 25 -33 25 -76 0 -28 -17 -39 -18
-65 -9 -17 6 -34 20 -38 31 -4 14 -12 18 -26 15 -11 -3 -28 -1 -38 5 -14 9
-25 7 -52 -10 l-34 -21 -29 24 c-33 27 -73 32 -81 11z m-17294 -1635 c0 -12
-20 -25 -27 -18 -7 7 6 27 18 27 5 0 9 -4 9 -9z m445 -1241 c3 -5 2 -10 -4
-10 -5 0 -13 5 -16 10 -3 6 -2 10 4 10 5 0 13 -4 16 -10z m16525 -984 c0 -3
-4 -8 -10 -11 -5 -3 -10 -1 -10 4 0 6 5 11 10 11 6 0 10 -2 10 -4z m-15238
-1031 c4 -20 3 -23 -8 -14 -16 13 -19 39 -5 39 5 0 11 -11 13 -25z m798 -1195
c0 -5 -2 -10 -4 -10 -3 0 -8 5 -11 10 -3 6 -1 10 4 10 6 0 11 -4 11 -10z
m12490 -324 c0 -3 -4 -8 -10 -11 -5 -3 -10 -1 -10 4 0 6 5 11 10 11 6 0 10 -2
10 -4z m-10730 -826 c0 -5 -4 -10 -10 -10 -5 0 -10 5 -10 10 0 6 5 10 10 10 6
0 10 -4 10 -10z m4077 -76 c-3 -3 -12 -4 -19 -1 -8 3 -5 6 6 6 11 1 17 -2 13
-5z m287 -32 c-3 -9 -19 -25 -36 -35 -25 -14 -29 -15 -18 -2 7 8 10 19 6 23
-4 4 -13 0 -19 -8 -13 -18 -50 -15 -44 3 2 6 17 12 33 13 16 1 40 7 54 12 14
6 26 11 27 11 0 1 -1 -7 -3 -17z m-4129 -92 c3 -5 -1 -10 -9 -10 -9 0 -16 5
-16 10 0 6 4 10 9 10 6 0 13 -4 16 -10z m85 -30 c0 -5 -4 -10 -10 -10 -5 0
-10 5 -10 10 0 6 5 10 10 10 6 0 10 -4 10 -10z m155 -10 c3 -5 1 -10 -4 -10
-6 0 -11 5 -11 10 0 6 2 10 4 10 3 0 8 -4 11 -10z m9255 -79 c0 -5 -7 -12 -16
-15 -22 -9 -24 -8 -24 9 0 8 9 15 20 15 11 0 20 -4 20 -9z m-8212 -419 c13
-13 15 -21 7 -29 -13 -12 -35 8 -35 32 0 20 6 19 28 -3z m67 -32 c3 -5 -1 -10
-9 -10 -8 0 -18 5 -21 10 -3 6 1 10 9 10 8 0 18 -4 21 -10z m645 -109 c0 -17
-18 -21 -24 -6 -3 9 0 15 9 15 8 0 15 -4 15 -9z m245 -122 c11 -17 -1 -21 -15
-4 -8 9 -8 15 -2 15 6 0 14 -5 17 -11z m55 -4 c11 -13 10 -14 -4 -9 -9 3 -16
10 -16 15 0 13 6 11 20 -6z m898 -73 c2 -6 -5 -8 -17 -5 -12 3 -21 9 -21 13 0
12 33 5 38 -8z m1462 -86 c0 -11 -19 -15 -25 -6 -3 5 1 10 9 10 9 0 16 -2 16
-4z"/>
<path d="M16737 5453 c-4 -3 -7 -11 -7 -17 0 -6 5 -5 12 2 6 6 9 14 7 17 -3 3
-9 2 -12 -2z"/>
<path d="M611 5129 c-13 -11 -30 -18 -38 -15 -7 3 -13 -1 -13 -9 0 -18 -14
-19 -42 -4 -17 9 -25 6 -53 -21 -26 -26 -39 -31 -59 -26 -16 4 -37 -1 -59 -13
-51 -28 -91 -35 -107 -17 -11 14 -15 14 -37 -4 -14 -11 -36 -20 -49 -20 -12 0
-26 -4 -29 -10 -3 -5 -17 -10 -31 -10 -29 0 -42 -24 -24 -45 15 -18 16 -16
-33 -39 l-37 -17 0 -2276 0 -2275 25 4 c14 3 25 1 25 -3 0 -5 -4 -9 -10 -9 -5
0 -10 -4 -10 -10 0 -5 14 -10 30 -10 17 0 30 5 30 11 0 7 11 9 29 6 34 -7 53
9 45 40 -5 16 0 21 22 26 25 4 26 4 11 -8 -21 -15 -23 -39 -2 -31 12 4 14 0 9
-20 -6 -22 -4 -25 12 -22 11 2 19 12 20 23 2 36 4 39 16 23 19 -24 69 -30 102
-13 36 19 48 9 18 -15 -12 -10 -18 -21 -13 -24 15 -10 63 -2 68 10 3 8 18 10
44 7 37 -5 39 -4 39 22 0 17 4 25 12 22 7 -2 12 -12 12 -21 -3 -24 55 -14 76
14 15 20 18 20 45 6 20 -11 34 -12 47 -5 10 5 22 7 27 4 13 -8 41 5 41 19 0 9
16 12 53 10 59 -2 125 -12 138 -20 9 -5 13 17 10 44 -3 20 20 14 26 -7 7 -28
31 -34 43 -11 6 11 9 23 8 27 -1 4 10 21 25 38 l28 30 19 -25 18 -24 19 32
c17 30 41 39 35 12 -2 -8 3 -10 14 -6 12 4 15 2 10 -9 -3 -8 -3 -15 -1 -15 8
0 55 51 55 60 0 5 11 16 23 25 13 8 30 28 37 43 l13 27 9 -27 c11 -33 23 -35
38 -8 6 11 15 18 21 15 5 -4 12 1 15 9 3 9 10 16 16 16 5 0 24 11 42 25 18 14
37 25 42 25 5 0 38 29 73 66 35 36 69 63 75 61 12 -5 52 18 176 98 204 132
365 281 465 432 97 146 194 299 213 333 7 14 24 38 36 55 36 48 149 251 204
365 85 178 131 338 168 580 8 52 18 120 23 150 5 33 4 62 -1 74 -6 11 -7 49
-3 90 3 39 1 121 -5 181 -18 183 -25 225 -40 260 -4 11 -13 53 -20 93 -10 63
-29 117 -93 263 -9 19 -23 41 -31 49 -9 7 -16 16 -16 21 0 15 -81 127 -96 133
-8 3 -14 12 -14 19 0 8 -9 22 -20 32 -11 10 -20 23 -20 28 0 6 -12 26 -27 46
-16 20 -45 63 -66 95 -47 72 -213 281 -253 318 -16 15 -52 50 -80 77 -32 33
-59 51 -75 51 -15 0 -40 17 -68 46 -24 25 -64 55 -88 66 -24 11 -69 45 -99 74
-41 41 -62 54 -84 54 -20 0 -35 8 -46 24 -16 25 -83 66 -108 66 -7 0 -37 18
-66 40 -29 22 -63 40 -76 40 -12 0 -38 7 -59 16 -34 14 -42 14 -86 0 -69 -23
-247 -15 -269 11 -25 31 -77 48 -105 35 -28 -13 -67 -2 -98 26 -14 12 -42 17
-115 18 -83 2 -100 0 -121 -17z m-281 -734 c-21 -22 -25 -23 -33 -10 -6 11 -3
25 8 42 16 23 18 24 33 9 15 -14 14 -18 -8 -41z m2140 -422 c0 -14 -19 -17
-44 -7 -19 7 -21 31 -3 37 16 5 47 -14 47 -30z m-1730 -939 c0 -14 -4 -23 -10
-19 -5 3 -10 15 -10 26 0 10 5 19 10 19 6 0 10 -12 10 -26z m-110 -1935 c0 -5
-11 -9 -25 -9 -24 0 -32 10 -19 22 8 8 44 -3 44 -13z m615 -599 c3 -5 -1 -10
-9 -10 -9 0 -16 5 -16 10 0 6 4 10 9 10 6 0 13 -4 16 -10z m-545 -90 c0 -5 -2
-10 -4 -10 -3 0 -8 5 -11 10 -3 6 -1 10 4 10 6 0 11 -4 11 -10z m-250 -70 c0
-5 -7 -10 -15 -10 -8 0 -15 5 -15 10 0 6 7 10 15 10 8 0 15 -4 15 -10z"/>
<path d="M20400 4649 c-30 -17 -62 -37 -70 -44 -8 -7 -31 -18 -52 -24 -20 -7
-47 -22 -60 -35 -12 -13 -42 -33 -65 -45 -24 -12 -64 -41 -90 -66 -27 -25 -51
-45 -55 -45 -5 0 -8 -6 -8 -13 0 -19 -33 -47 -53 -47 -9 0 -17 -3 -17 -7 0 -5
-16 -19 -35 -32 -19 -13 -35 -32 -35 -42 0 -12 -15 -25 -42 -38 -24 -11 -60
-36 -82 -55 -37 -35 -65 -53 -113 -75 -13 -6 -23 -17 -23 -25 0 -20 -57 -66
-83 -67 -23 0 -109 -95 -205 -224 -15 -21 -67 -101 -78 -120 -114 -207 -173
-318 -188 -355 -10 -25 -35 -81 -56 -125 -52 -108 -100 -244 -100 -284 0 -17
-7 -48 -15 -68 -8 -19 -17 -76 -20 -125 -3 -49 -9 -98 -15 -108 -17 -32 -31
-241 -26 -410 4 -155 6 -170 35 -245 41 -106 40 -111 -7 -107 -28 3 -57 -5
-106 -28 -105 -50 -156 -108 -156 -177 0 -31 -6 -48 -20 -60 -11 -10 -20 -28
-20 -41 0 -12 -7 -38 -15 -58 -10 -24 -15 -78 -16 -172 -3 -194 6 -262 42
-313 10 -15 23 -38 29 -53 27 -72 211 -263 271 -281 13 -4 45 -23 70 -41 25
-18 49 -31 52 -27 4 3 16 -2 26 -11 11 -10 25 -19 33 -20 7 -1 32 -14 55 -29
24 -15 50 -27 58 -27 8 0 23 -4 33 -9 9 -6 30 -13 46 -16 24 -5 27 -8 15 -17
-11 -8 -10 -9 4 -4 10 3 21 6 23 6 2 0 4 6 4 14 0 9 7 12 20 9 24 -6 27 -23 4
-23 -10 0 -14 -7 -12 -22 3 -24 35 -37 106 -43 24 -2 51 -10 60 -17 10 -8 29
-19 45 -26 23 -10 26 -16 21 -37 -6 -24 -4 -25 32 -23 22 2 42 7 46 12 4 6 12
5 20 -2 9 -7 19 -8 28 -2 22 14 72 11 94 -5 34 -26 49 -17 21 11 -20 20 -33
25 -55 21 -17 -4 -30 -2 -32 5 -3 7 -23 13 -47 14 -62 3 -103 22 -99 47 4 29
26 33 30 5 3 -20 9 -23 44 -23 29 0 40 4 37 12 -3 7 -1 13 5 13 5 0 12 -9 15
-20 6 -22 31 -26 71 -10 23 8 26 7 32 -15 8 -31 49 -65 78 -65 12 0 28 -6 34
-12 10 -10 14 -8 18 9 5 18 10 20 30 13 16 -6 24 -6 24 1 0 6 8 8 18 5 46 -13
124 -18 118 -7 -14 23 41 10 62 -14 12 -14 28 -25 34 -25 10 0 10 2 0 9 -11 7
-11 9 2 14 8 3 22 -1 31 -9 12 -13 19 -14 30 -4 12 10 18 10 30 0 12 -10 15
-10 15 3 0 24 -20 71 -33 79 -9 6 -8 11 3 18 15 10 29 9 63 -5 14 -6 17 -3 15
16 -2 14 2 24 10 24 6 0 11 -3 10 -6 -5 -12 26 -40 38 -35 7 3 16 1 19 -4 4
-6 2 -10 -3 -10 -5 0 -7 -14 -4 -30 4 -27 8 -30 43 -30 l39 0 0 2205 c0 1757
-3 2205 -12 2205 -7 0 -38 -14 -68 -31z m-1490 -3019 c0 -5 -2 -10 -4 -10 -3
0 -8 5 -11 10 -3 6 -1 10 4 10 6 0 11 -4 11 -10z m533 -1194 c9 -7 17 -22 17
-32 0 -16 -3 -15 -25 8 -35 38 -31 53 8 24z m195 -14 c7 7 13 10 16 7 2 -2 -9
-14 -24 -26 l-28 -23 -4 25 c-4 20 -2 23 12 15 11 -6 21 -5 28 2z m-148 -42
c0 -5 -4 -10 -10 -10 -5 0 -10 5 -10 10 0 6 5 10 10 10 6 0 10 -4 10 -10z
m325 -67 c1 -20 0 -20 -22 -6 -24 16 -22 36 5 31 8 -2 16 -13 17 -25z m30 -3
c3 -5 1 -10 -4 -10 -6 0 -11 5 -11 10 0 6 2 10 4 10 3 0 8 -4 11 -10z"/>
<path d="M8365 3240 c3 -5 8 -10 11 -10 2 0 4 5 4 10 0 6 -5 10 -11 10 -5 0
-7 -4 -4 -10z"/>
<path d="M8880 3076 c0 -7 7 -19 15 -26 8 -7 12 -16 9 -21 -3 -5 0 -9 5 -9 6
0 11 -9 11 -20 0 -24 15 -26 24 -4 4 10 -1 25 -10 35 -10 11 -13 25 -9 38 5
18 2 21 -19 21 -15 0 -26 -6 -26 -14z"/>
<path d="M11826 2961 c-3 -5 1 -12 10 -15 20 -8 29 -1 19 13 -8 13 -22 14 -29
2z"/>
<path d="M9930 2750 c0 -5 5 -10 11 -10 5 0 7 5 4 10 -3 6 -8 10 -11 10 -2 0
-4 -4 -4 -10z"/>
<path d="M4660 2059 c-25 -5 -57 -7 -72 -5 -14 3 -41 1 -60 -5 -18 -5 -48 -10
-66 -11 -22 -1 -43 -11 -62 -30 -31 -31 -45 -36 -36 -13 13 36 -64 10 -97 -32
-10 -13 -24 -29 -31 -36 -7 -7 -16 -24 -19 -39 -4 -15 -15 -35 -25 -45 -10
-10 -29 -43 -42 -73 -13 -30 -29 -62 -35 -70 -29 -37 -49 -118 -50 -205 -3
-110 6 -149 48 -217 40 -66 65 -91 91 -93 17 -2 21 -8 18 -36 -2 -30 1 -36 28
-46 22 -8 30 -18 30 -35 0 -23 -24 -66 -44 -80 -17 -11 -36 12 -36 43 0 35
-17 37 -48 4 -13 -13 -29 -22 -37 -19 -20 8 -184 -160 -191 -194 -7 -34 -23
-55 -52 -71 -22 -12 -22 -14 -8 -30 23 -25 20 -68 -4 -81 -15 -8 -19 -17 -14
-35 5 -19 0 -30 -17 -44 l-23 -18 34 -44 c41 -53 49 -59 67 -52 8 3 13 2 12
-3 -4 -18 13 -64 22 -58 5 3 13 -6 19 -20 10 -27 40 -27 40 0 0 7 11 25 25 40
19 21 28 25 37 16 8 -8 7 -13 -5 -18 -18 -6 -21 -47 -8 -93 5 -20 8 -22 19 -9
7 9 11 24 10 34 -4 25 15 31 22 7 13 -46 27 -57 71 -54 24 1 49 6 55 12 8 6
14 5 18 -6 6 -17 46 -21 46 -5 0 7 6 7 18 1 11 -6 57 -8 108 -4 99 6 99 6 169
-2 139 -14 169 -14 210 -1 36 13 47 13 81 1 43 -16 100 -19 108 -7 2 4 53 7
113 5 59 -1 120 -2 135 -3 15 0 30 -4 33 -10 7 -12 54 -3 75 15 53 45 151 58
179 23 l18 -21 86 24 c103 30 177 83 177 128 0 15 5 32 12 39 9 9 6 17 -13 34
-20 19 -22 27 -14 45 7 16 15 21 27 17 14 -4 18 0 18 16 0 19 -4 21 -25 16
-18 -5 -25 -2 -25 9 0 8 4 15 8 15 11 0 32 45 32 69 0 12 -7 17 -22 17 -21 -1
-23 3 -20 41 3 33 0 42 -15 47 -11 3 -37 22 -58 42 -21 19 -50 41 -64 49 -78
41 -115 55 -131 50 -12 -4 -25 3 -38 20 -14 17 -30 25 -51 25 -19 0 -38 8 -48
20 -10 11 -23 20 -30 20 -7 0 -20 11 -28 24 -9 13 -28 27 -43 31 -15 3 -44 25
-65 47 -41 44 -59 42 -59 -6 0 -14 -5 -26 -10 -26 -5 0 -8 19 -6 43 3 39 6 43
42 55 21 7 48 12 60 12 49 0 196 -28 211 -40 8 -7 18 -10 21 -7 11 11 -103
327 -137 377 -9 14 -20 35 -23 48 -4 12 -11 22 -16 22 -5 0 -15 12 -23 28 -45
87 -84 152 -116 193 -44 56 -138 139 -178 158 -15 7 -35 17 -43 22 -8 5 -26
14 -40 20 -14 6 -37 17 -52 25 -29 16 -109 17 -178 3z m-310 -886 c-1 -21 -13
-53 -21 -53 -10 0 -12 43 -2 53 9 9 23 9 23 0z m-210 -183 c0 -5 -4 -10 -10
-10 -5 0 -10 5 -10 10 0 6 5 10 10 10 6 0 10 -4 10 -10z m-240 -400 c0 -5 -4
-10 -10 -10 -5 0 -10 5 -10 10 0 6 5 10 10 10 6 0 10 -4 10 -10z m1854 -145
c-4 -8 -11 -15 -16 -15 -6 0 -5 6 2 15 7 8 14 15 16 15 2 0 1 -7 -2 -15z"/>
<path d="M17426 1393 c-4 -4 -22 -6 -41 -5 -21 2 -35 -2 -35 -9 0 -8 -13 -10
-40 -5 -24 4 -40 2 -40 -4 0 -5 -10 -9 -22 -7 -17 1 -22 -3 -20 -15 4 -23 -13
-31 -28 -13 -19 23 -40 18 -40 -10 0 -25 -25 -45 -57 -45 -10 0 -35 -8 -55
-18 -22 -11 -48 -17 -67 -14 -24 3 -31 0 -31 -12 0 -9 -8 -16 -19 -16 -11 0
-23 -4 -26 -10 -3 -5 -13 -10 -22 -10 -9 0 -21 -7 -27 -16 -12 -16 -51 -9 -40
7 3 5 0 9 -6 9 -6 0 -16 -11 -22 -25 -9 -19 -14 -22 -24 -14 -11 9 -21 4 -43
-20 -16 -17 -38 -31 -49 -31 -15 0 -21 -9 -27 -36 -9 -48 -33 -84 -56 -84 -14
0 -19 -7 -19 -25 0 -14 -9 -34 -19 -44 -10 -10 -22 -32 -25 -48 -7 -29 -33
-62 -70 -87 -20 -14 -26 -68 -7 -74 6 -2 11 -11 11 -19 0 -9 -6 -13 -15 -9 -9
3 -19 -3 -26 -16 -10 -18 -8 -24 10 -39 11 -9 21 -22 21 -28 0 -5 4 -12 8 -15
5 -3 8 5 8 17 -1 13 6 23 17 25 13 3 17 -3 17 -26 0 -16 -7 -35 -15 -42 -8 -7
-15 -19 -15 -26 0 -8 -4 -14 -9 -14 -10 0 -8 -233 3 -272 l8 -26 111 1 c145 2
317 -5 322 -13 2 -4 26 -6 52 -5 26 1 56 -3 67 -9 14 -8 20 -8 23 1 3 7 17 9
40 6 24 -4 38 -2 44 8 8 12 10 12 18 0 7 -11 9 -11 13 0 4 11 10 12 32 1 17
-8 33 -9 40 -4 6 5 19 10 29 11 9 0 25 2 35 2 9 1 22 5 27 9 10 7 145 -4 171
-14 7 -3 41 -1 76 4 39 6 66 6 72 0 23 -23 121 -1 203 46 26 15 79 44 117 64
50 26 74 45 85 68 11 21 23 32 36 31 44 -3 48 0 42 30 -4 20 0 37 12 53 25 33
31 54 19 66 -8 8 -3 13 16 18 32 8 35 42 6 69 -23 21 -27 75 -6 75 10 0 14 11
13 35 -1 23 5 39 17 48 16 12 17 16 5 35 -8 12 -22 25 -32 28 -9 3 -15 10 -12
15 4 5 -1 12 -9 15 -19 7 -21 34 -3 34 7 0 18 -5 24 -11 7 -7 13 -7 17 -1 3 6
-2 13 -13 17 -32 10 -54 51 -40 76 6 11 9 22 7 23 -43 25 -60 29 -68 16 -5 -8
-12 -11 -17 -7 -4 5 -2 12 6 16 15 10 11 63 -6 69 -7 2 -17 -8 -22 -21 -6 -14
-19 -28 -31 -32 -31 -10 -37 3 -7 14 37 14 40 56 6 92 -18 20 -43 31 -88 40
-50 9 -64 17 -71 34 -10 28 -29 35 -52 22 -12 -8 -23 -6 -41 6 -14 9 -33 14
-42 11 -20 -8 -45 13 -45 37 0 20 -20 24 -55 10 -12 -5 -25 -3 -33 6 -8 8 -30
13 -53 11 -22 -1 -44 3 -51 10 -13 13 -41 16 -52 5z m311 -209 c-3 -3 -12 -4
-19 -1 -8 3 -5 6 6 6 11 1 17 -2 13 -5z m-907 -54 c0 -5 -2 -10 -4 -10 -3 0
-8 5 -11 10 -3 6 -1 10 4 10 6 0 11 -4 11 -10z m1240 -270 c0 -5 -4 -10 -9
-10 -6 0 -13 5 -16 10 -3 6 1 10 9 10 9 0 16 -4 16 -10z"/>
<path d="M7838 673 c6 -2 18 -2 25 0 6 3 1 5 -13 5 -14 0 -19 -2 -12 -5z"/>
<path d="M8070 609 c0 -7 39 -21 95 -34 21 -5 27 -3 19 4 -13 14 -114 41 -114
30z"/>
<path d="M8225 580 c-4 -6 -11 -8 -16 -5 -5 4 -9 4 -9 0 0 -7 35 -20 75 -28
28 -6 27 -5 -8 12 -20 10 -34 21 -30 24 3 4 4 7 0 7 -3 0 -9 -5 -12 -10z"/>
<path d="M8418 513 c7 -3 16 -2 19 1 4 3 -2 6 -13 5 -11 0 -14 -3 -6 -6z"/>
<path d="M19935 240 c-4 -6 9 -10 31 -10 42 0 42 4 2 14 -15 3 -30 2 -33 -4z"/>
<path d="M20425 220 c-17 -6 -15 -8 10 -13 35 -6 40 -4 23 10 -7 6 -22 7 -33
3z"/>
<path d="M20050 216 c0 -2 7 -7 16 -10 8 -3 12 -2 9 4 -6 10 -25 14 -25 6z"/>
<path d="M16659 199 c-10 -6 -7 -9 14 -9 29 0 35 5 14 13 -8 3 -20 1 -28 -4z"/>
<path d="M20111 206 c11 -10 89 -15 89 -6 0 5 -21 10 -47 10 -25 0 -44 -2 -42
-4z"/>
<path d="M16728 193 c6 -2 18 -2 25 0 6 3 1 5 -13 5 -14 0 -19 -2 -12 -5z"/>
<path d="M17375 190 c-3 -5 3 -10 15 -10 12 0 18 5 15 10 -3 6 -10 10 -15 10
-5 0 -12 -4 -15 -10z"/>
</g>
</svg>
