<?xml version="1.0" standalone="no"?>
<!DOCTYPE svg PUBLIC "-//W3C//DTD SVG 20010904//EN"
 "http://www.w3.org/TR/2001/REC-SVG-20010904/DTD/svg10.dtd">
<svg version="1.0" xmlns="http://www.w3.org/2000/svg"
 width="318.000000pt" height="318.000000pt" viewBox="0 0 318.000000 318.000000"
 preserveAspectRatio="xMidYMid meet">
<metadata>
Created by potrace 1.14, written by Peter Selinger 2001-2017
</metadata>
<g transform="translate(0.000000,318.000000) scale(0.100000,-0.100000)"
fill="#000000" stroke="none">
<path d="M1385 3074 c-348 -51 -635 -193 -876 -433 -212 -213 -344 -454 -411
-752 -20 -90 -23 -131 -23 -309 0 -178 3 -219 23 -309 67 -298 199 -539 411
-752 213 -212 454 -344 752 -411 90 -20 131 -23 309 -23 178 0 219 3 309 23
298 67 539 199 752 411 212 213 344 454 411 752 20 90 23 131 23 309 0 178 -3
219 -23 309 -67 298 -199 539 -411 752 -209 208 -440 336 -731 406 -89 21
-135 25 -295 28 -104 2 -203 1 -220 -1z"/>
</g>
</svg>
